<?xml version="1.0" encoding="UTF-8"?>
<svg id="Layer_2" data-name="Layer 2" xmlns="http://www.w3.org/2000/svg" viewBox="0 0 474 592.54">
  <defs>
    <style>
      .cls-1 {
        fill: #fff;
      }

      .cls-2 {
        fill: none;
      }

      .cls-3 {
        fill: #79c9bc;
      }

      .cls-4 {
        fill: #bde5de;
      }
    </style>
  </defs>
  <g id="Background">
    <g>
      <path class="cls-2" d="M140.53,24.61c5.83,3.44,13.82,8.15,22.81,12.68l8.36-4.55s23.63,11.18,43.14-8.33c8.09-8.09,10.9-16.89,11.42-24.42h-114.63c7.75,11.23,21.84,20.45,28.9,24.61Z"/>
      <polygon class="cls-2" points="377.41 61.02 377.42 61.02 377.41 61.02 377.41 61.02"/>
      <path class="cls-4" d="M333.72,234.31c-.42,1.27-.58,2.62-.46,3.94-.12-1.33.04-2.67.46-3.94Z"/>
      <path class="cls-4" d="M367.01,268.01c1.49-.44,2.9-1.25,4.08-2.43l32.93-32.93-32.93,32.93c-1.18,1.18-2.59,1.99-4.08,2.43Z"/>
      <polygon class="cls-4" points="374.45 192.12 371.59 194.99 374.45 192.12 374.45 192.12"/>
      <path class="cls-4" d="M390.32,211.3l-14.21-14.21-4.48,4.48,5.45,5.45-3.31,3.31-5.45-5.45-5.24,5.24,14.21,14.21-3.31,3.31-14.21-14.21-4.46,4.46,5.45,5.45-3.31,3.31-5.45-5.45-5.26,5.26,14.21,14.21-3.31,3.31-14.21-14.21-4.1,4.1c-.94.94-1.46,2.19-1.46,3.52s.52,2.58,1.46,3.52l21.38,21.38c.94.94,2.19,1.46,3.52,1.46s2.58-.52,3.52-1.46l38.41-38.41-14.22-14.22-1.65,1.65Z"/>
      <path class="cls-4" d="M449.64,186.42c1.47-2.8,1.47-6.18,0-8.99,1.47,2.8,1.47,6.18,0,8.99Z"/>
      <polygon class="cls-4" points="327.36 274.26 309.84 256.74 302.11 264.46 337.16 299.51 344.89 291.78 333.8 280.7 333.8 280.7 327.36 274.26"/>
      <polygon class="cls-3" points="335.47 253.28 320.93 267.82 327.36 274.26 333.8 280.7 348.34 266.16 356.25 264.41 337.22 245.37 335.47 253.28"/>
      <polygon class="cls-3" points="333.8 280.7 333.8 280.7 327.36 274.26 333.8 280.7"/>
      <path class="cls-3" d="M397.63,168.94l3.31-3.31h0s11.93-11.93,11.93-11.93c1.89-1.89,4.36-2.83,6.83-2.83h0c2.47,0,4.95.94,6.83,2.83l4.9,4.9-4.9-4.9c-3.77-3.77-9.89-3.77-13.66,0l-38.42,38.42h0s23.18-23.18,23.18-23.18h0Z"/>
      <path class="cls-3" d="M412.87,153.71c1.89-1.89,4.36-2.83,6.83-2.83-2.47,0-4.95.94-6.83,2.83l-11.93,11.93h0l11.93-11.93Z"/>
      <path class="cls-3" d="M444.61,178.4l-21.38-21.38c-.94-.94-2.19-1.46-3.52-1.46s-2.58.52-3.53,1.46l-4.1,4.1,14.21,14.21-3.31,3.31-14.21-14.21-4.52,4.52,5.45,5.45-3.31,3.31-5.45-5.45-4.48,4.48,14.21,14.21-3.31,3.31-14.21-14.21-5.22,5.22,5.45,5.45-3.31,3.31-5.45-5.45-5.22,5.22,14.21,14.21-1.65,1.65,14.22,14.22,38.42-38.42c1.94-1.94,1.94-5.11,0-7.05Z"/>
      <rect class="cls-3" x="386.04" y="164.14" width="0" height="32.78"/>
      <path class="cls-1" d="M406.26,449.32c-5.9,4.99-9.56,11.93-10.31,19.53-.74,7.59,1.53,14.94,6.4,20.69l5.24,6.19c8.04,9.5,6.64,23.97-3.14,32.23-4.73,4-10.7,5.98-16.8,5.55-6.1-.42-11.6-3.19-15.5-7.8l-16.91-19.98c-.69.66-1.4,1.31-2.14,1.93-.74.62-1.49,1.21-2.25,1.78l16.91,19.98c4.87,5.75,11.74,9.21,19.34,9.73,7.61.53,15.05-1.93,20.96-6.93,12.19-10.32,13.95-28.36,3.91-40.22l-5.24-6.19c-3.9-4.61-5.72-10.5-5.13-16.58.6-6.09,3.54-11.65,8.27-15.66,9.77-8.27,24.27-7.26,32.31,2.24l21.63,25.57,4.39-3.71-21.63-25.57c-10.04-11.86-28.12-13.11-40.31-2.8Z"/>
      <polygon class="cls-3" points="228.19 431.6 228.19 431.6 228.19 431.6 228.19 431.6"/>
      <path class="cls-3" d="M316.41,424.59l-12.99,10.99,10.69,12.63-13.18,11.15-10.69-12.63-12.99,10.99-5.42-6.41-11.32,9.58,32.66,38.6c14.02,16.57,39.29,18.32,56.33,3.91,17.04-14.42,19.49-39.63,5.47-56.2l-32.66-38.6-11.32,9.58,5.42,6.41Z"/>
      <path class="cls-3" d="M326.69,404.88l32.66,38.6c15.43,18.24,13.42,45.52-4.11,62.25h0c17.53-16.73,19.54-44.01,4.11-62.25l-60.58-71.59,27.92,33h0Z"/>
      <path class="cls-3" d="M295.35,509.51c15.81,12.3,38.63,12.58,55.51-.06h0c-16.88,12.63-39.69,12.36-55.5.06Z"/>
      <path class="cls-3" d="M355.24,505.74h0c-.69.65-1.4,1.3-2.13,1.93-.74.62-1.49,1.21-2.26,1.78h0c.76-.56,1.52-1.15,2.25-1.78.74-.63,1.45-1.27,2.14-1.93Z"/>
      <path class="cls-4" d="M227.42,430.59c-.36-.53-.66-1.08-.92-1.64.27.56.56,1.11.92,1.64Z"/>
      <path class="cls-4" d="M284.43,374.91l-50.87,43.05c-3.01,2.55-3.44,7-.97,9.93l27.92,32.99,11.32-9.58-5.42-6.41,12.99-10.99-10.69-12.63,13.18-11.15,10.69,12.63,12.99-10.99,5.42,6.41,11.32-9.58-27.92-32.99c-2.48-2.93-6.94-3.24-9.95-.69Z"/>
      <path class="cls-4" d="M298.77,371.89l27.92,32.99h0s-27.92-33-27.92-33c-1.4-1.65-3.14-2.84-5.05-3.55,1.91.72,3.65,1.91,5.05,3.56Z"/>
      <path class="cls-4" d="M228.05,431.41c.05.06.09.13.15.19h0c-.05-.06-.09-.13-.15-.19Z"/>
      <path class="cls-1" d="M228.05,431.41c-.22-.27-.44-.54-.63-.83.19.28.41.56.63.83Z"/>
      <path class="cls-1" d="M229.95,413.69l50.87-43.04c3.74-3.17,8.71-3.89,12.9-2.32-4.2-1.58-9.16-.85-12.9,2.31l-50.87,43.05c-4.59,3.88-5.85,10.2-3.44,15.25-2.4-5.05-1.14-11.37,3.45-15.25Z"/>
      <path class="cls-1" d="M288.78,503.2l-60.58-71.59s0,0,0,0l60.58,71.59c2.01,2.37,4.21,4.47,6.57,6.31-2.36-1.84-4.57-3.94-6.57-6.31Z"/>
      <path class="cls-1" d="M350.85,509.45l-1.61-1.9,4.39-3.71,1.61,1.9c17.53-16.73,19.54-44.01,4.11-62.25l-32.66-38.6-4.39,3.71,32.66,38.6c14.02,16.57,11.57,41.78-5.47,56.2-17.04,14.42-42.31,12.66-56.33-3.91l-32.66-38.6-4.39,3.71-27.92-33h0l60.58,71.59c2.01,2.37,4.21,4.48,6.57,6.31,15.81,12.3,38.62,12.57,55.5-.06Z"/>
      <path class="cls-1" d="M349.24,507.55l1.61,1.9c.76-.57,1.52-1.16,2.26-1.78.74-.62,1.44-1.27,2.13-1.93l-1.61-1.9-4.39,3.71Z"/>
      <path class="cls-1" d="M256.12,464.6l4.39-3.71-27.92-32.99c-2.48-2.93-2.04-7.38.97-9.93l50.87-43.05c3.01-2.55,7.48-2.24,9.95.69l27.92,32.99,4.39-3.71-27.92-32.99c-1.4-1.65-3.15-2.84-5.05-3.56-4.19-1.57-9.16-.85-12.9,2.32l-50.87,43.04c-4.59,3.89-5.85,10.2-3.45,15.25.27.56.56,1.11.92,1.64.19.28.41.56.63.83.05.06.09.13.15.19l27.92,33Z"/>
      <polygon class="cls-1" points="290.24 446.73 300.93 459.36 314.11 448.21 303.42 435.58 316.41 424.59 310.98 418.18 271.83 451.31 277.25 457.72 290.24 446.73"/>
      <polygon class="cls-1" points="305.56 411.77 292.57 422.76 281.88 410.13 268.7 421.28 279.39 433.91 266.4 444.9 271.83 451.31 310.98 418.18 305.56 411.77"/>
      <path class="cls-3" d="M228.13,214.96c.44.06.89.13,1.33.21-.44-.07-.89-.15-1.33-.21Z"/>
      <path class="cls-3" d="M226.21,214.74c.47.04.95.1,1.42.16-.47-.06-.95-.11-1.42-.16Z"/>
      <path class="cls-3" d="M147.58,320.46c-.47-.46-.95-.92-1.41-1.38.47.46.94.92,1.41,1.38Z"/>
      <path class="cls-3" d="M137.79,310.33c-.39-.43-.78-.87-1.17-1.3.39.43.78.87,1.17,1.3Z"/>
      <path class="cls-3" d="M231.98,215.66c.35.08.7.17,1.05.26-.35-.09-.7-.18-1.05-.26Z"/>
      <path class="cls-3" d="M224.29,214.61c.49.02.99.06,1.48.1-.49-.04-.99-.07-1.48-.1Z"/>
      <path class="cls-3" d="M145.02,317.92c-.45-.45-.9-.9-1.34-1.36.44.45.89.9,1.34,1.36Z"/>
      <path class="cls-3" d="M142.53,315.38c-.43-.44-.86-.89-1.28-1.33.42.44.85.89,1.28,1.33Z"/>
      <path class="cls-3" d="M230.06,215.27c.4.07.8.16,1.2.24-.4-.08-.8-.17-1.2-.24Z"/>
      <path class="cls-3" d="M140.12,312.85c-.41-.44-.82-.87-1.22-1.31.4.44.81.87,1.22,1.31Z"/>
      <path class="cls-3" d="M129.27,300.32c-.33-.42-.66-.84-.99-1.27.33.42.65.84.99,1.27Z"/>
      <path class="cls-3" d="M214.43,215.27c.73-.13,1.47-.25,2.2-.34-.74.1-1.47.21-2.2.34Z"/>
      <path class="cls-3" d="M216.98,214.88c.84-.1,1.68-.18,2.53-.23-.85.05-1.69.13-2.53.23Z"/>
      <path class="cls-3" d="M127.34,297.84c-.33-.43-.65-.86-.97-1.3.32.43.64.86.97,1.3Z"/>
      <path class="cls-3" d="M222.39,214.57c.5,0,1,.01,1.49.03-.5-.02-1-.03-1.49-.03Z"/>
      <path class="cls-3" d="M133.37,305.32c-.36-.43-.72-.85-1.07-1.28.36.43.71.85,1.07,1.28Z"/>
      <path class="cls-3" d="M135.55,307.82c-.38-.43-.75-.86-1.12-1.29.37.43.74.86,1.12,1.29Z"/>
      <path class="cls-3" d="M131.29,302.82c-.35-.42-.69-.85-1.03-1.27.34.42.68.85,1.03,1.27Z"/>
      <path class="cls-3" d="M219.61,214.64c.82-.05,1.64-.07,2.46-.08-.82,0-1.65.03-2.46.08Z"/>
      <path class="cls-3" d="M225.64,318.79c-.59.58-1.19,1.18-1.8,1.77.61-.59,1.21-1.18,1.8-1.77Z"/>
      <path class="cls-3" d="M238.77,304.57c-.35.42-.7.83-1.06,1.25.36-.42.71-.84,1.06-1.25Z"/>
      <path class="cls-3" d="M240.83,302.09c-.29.36-.58.71-.88,1.08.3-.37.59-.72.88-1.08Z"/>
      <path class="cls-3" d="M236.51,307.2c-.4.46-.8.92-1.22,1.39.42-.47.82-.93,1.22-1.39Z"/>
      <path class="cls-3" d="M215.52,328.36c-1.22,1.1-2.48,2.21-3.77,3.33,1.29-1.12,2.54-2.23,3.77-3.33Z"/>
      <path class="cls-3" d="M219.09,325.1c-.77.72-1.57,1.44-2.36,2.17.8-.73,1.6-1.45,2.36-2.17Z"/>
      <path class="cls-3" d="M231.44,312.8c-.49.52-.99,1.05-1.5,1.58.51-.53,1.01-1.06,1.5-1.58Z"/>
      <path class="cls-3" d="M211.75,215.84c.78-.19,1.56-.36,2.35-.51-.79.15-1.57.32-2.35.51Z"/>
      <path class="cls-3" d="M233.89,216.14c.29.08.57.17.86.26-.29-.09-.57-.18-.86-.26Z"/>
      <path class="cls-3" d="M234.07,309.95c-.45.49-.9.99-1.36,1.49.46-.5.91-1,1.36-1.49Z"/>
      <path class="cls-3" d="M222.46,321.9c-.65.63-1.33,1.27-2.01,1.9.68-.64,1.35-1.28,2.01-1.9Z"/>
      <path class="cls-3" d="M235.77,216.7c.15.05.29.1.44.15-.15-.05-.29-.1-.44-.15Z"/>
      <path class="cls-3" d="M187.26,231.83c-.51.67-1.01,1.35-1.49,2.05,0,0,0,0,0,0,.48-.7.97-1.39,1.49-2.06Z"/>
      <path class="cls-3" d="M153.03,325.63c-.55-.5-1.09-1.01-1.63-1.51.54.5,1.08,1.01,1.63,1.51Z"/>
      <path class="cls-3" d="M159.79,331.69c-.97-.84-1.92-1.68-2.87-2.52.94.84,1.9,1.68,2.87,2.52Z"/>
      <path class="cls-3" d="M150.24,323.02c-.5-.47-1-.95-1.49-1.42.49.47.99.95,1.49,1.42Z"/>
      <path class="cls-3" d="M155.99,328.32c-.62-.56-1.25-1.12-1.86-1.68.61.56,1.24,1.12,1.86,1.68Z"/>
      <path class="cls-3" d="M242.63,299.84c-.2.26-.4.51-.61.77.21-.26.4-.51.61-.77Z"/>
      <path class="cls-3" d="M115.45,288.46c-4.32-7-6.46-11.99-7.4-14.48-8.5-22.79,3.1-48.15,25.88-56.64.63-.23,1.26-.45,1.89-.66-.63.2-1.27.42-1.9.66-22.79,8.49-34.38,33.86-25.88,56.64.93,2.49,3.08,7.48,7.4,14.48.43.7.89,1.42,1.37,2.16-.48-.74-.93-1.46-1.37-2.16h0Z"/>
      <path class="cls-3" d="M125.49,295.37c-.35-.47-.68-.95-1.02-1.42.34.47.67.95,1.02,1.42Z"/>
      <path class="cls-3" d="M182.66,229.84c.42.49.83.99,1.23,1.5-.4-.51-.81-1.01-1.23-1.5Z"/>
      <path class="cls-3" d="M152.02,214.65c.86.05,1.72.13,2.58.24-.86-.1-1.72-.19-2.58-.24Z"/>
      <path class="cls-3" d="M187.52,231.5c1.02-1.31,2.12-2.56,3.27-3.73-1.15,1.17-2.25,2.42-3.27,3.73Z"/>
      <path class="cls-3" d="M154.83,214.92c.8.1,1.6.22,2.39.37-.79-.15-1.59-.27-2.39-.37Z"/>
      <path class="cls-3" d="M147.67,214.6c.5-.02.99-.03,1.49-.03-.49,0-.99.01-1.49.03Z"/>
      <path class="cls-3" d="M145.77,214.71c.49-.04.99-.07,1.48-.1-.49.02-.98.06-1.48.1Z"/>
      <path class="cls-3" d="M184.4,231.99c.4.52.78,1.06,1.16,1.6-.37-.54-.76-1.08-1.16-1.6Z"/>
      <path class="cls-3" d="M178.88,225.97c.48.44.95.88,1.42,1.34-.46-.46-.94-.91-1.42-1.34Z"/>
      <path class="cls-3" d="M149.46,214.57c.83,0,1.67.03,2.5.08-.83-.05-1.66-.07-2.5-.08Z"/>
      <path class="cls-3" d="M180.83,227.84c.53.54,1.05,1.09,1.56,1.67-.5-.57-1.03-1.12-1.56-1.67Z"/>
      <path class="cls-3" d="M172.38,221.1c.66.41,1.32.83,1.96,1.27-.64-.44-1.3-.87-1.96-1.27Z"/>
      <path class="cls-3" d="M162.61,216.63c.78.25,1.56.52,2.33.81-.77-.29-1.54-.56-2.33-.81Z"/>
      <path class="cls-3" d="M165.23,217.56c.67.26,1.34.54,2,.83-.66-.29-1.33-.57-2-.83Z"/>
      <path class="cls-3" d="M170.11,219.8c.61.32,1.21.66,1.8,1.02-.59-.35-1.19-.69-1.8-1.02Z"/>
      <path class="cls-3" d="M160.12,215.92c.74.19,1.48.4,2.21.62-.73-.23-1.47-.43-2.21-.62Z"/>
      <path class="cls-3" d="M176.8,224.2c.6.48,1.19.97,1.77,1.48-.58-.51-1.17-1-1.77-1.48Z"/>
      <path class="cls-3" d="M174.68,222.62c.54.38,1.07.78,1.6,1.18-.52-.41-1.06-.8-1.6-1.18Z"/>
      <path class="cls-3" d="M157.39,215.32c.83.16,1.66.34,2.48.54-.82-.2-1.65-.38-2.48-.54Z"/>
      <path class="cls-3" d="M209.35,216.5c.64-.2,1.29-.38,1.94-.55-.65.17-1.3.35-1.94.55Z"/>
      <path class="cls-3" d="M201.68,219.66c.74-.39,1.48-.75,2.24-1.1-.76.35-1.5.71-2.24,1.1Z"/>
      <path class="cls-3" d="M143.88,214.91c.49-.06.97-.12,1.46-.16-.49.04-.97.1-1.46.16Z"/>
      <path class="cls-3" d="M185.77,360.18h0s-28.89-25.13-28.89-25.13c-19.27-16.75-31.24-31.28-38.55-42.14,0,0,0,0,0,0h0c7.32,10.86,19.29,25.4,38.55,42.14l28.89,25.13Z"/>
      <path class="cls-3" d="M199.54,220.88c.69-.41,1.39-.81,2.1-1.19-.71.38-1.41.77-2.1,1.19Z"/>
      <path class="cls-3" d="M206.64,217.43c.73-.28,1.47-.54,2.22-.77-.75.24-1.49.5-2.22.77Z"/>
      <path class="cls-3" d="M204.31,218.39c.63-.28,1.28-.55,1.92-.8-.65.25-1.29.52-1.92.8Z"/>
      <path class="cls-3" d="M167.64,218.57c.73.33,1.45.68,2.15,1.05-.71-.37-1.43-.72-2.15-1.05Z"/>
      <path class="cls-3" d="M138.16,216.01c.48-.13.96-.25,1.44-.36-.48.11-.96.23-1.44.36Z"/>
      <path class="cls-3" d="M135.99,216.63c.57-.18,1.14-.35,1.71-.51-.57.16-1.14.33-1.71.51Z"/>
      <path class="cls-3" d="M197.15,222.4c.68-.47,1.37-.91,2.07-1.34-.7.43-1.39.87-2.07,1.34Z"/>
      <path class="cls-3" d="M191.16,227.39c.53-.53,1.08-1.05,1.64-1.55-.56.5-1.1,1.02-1.64,1.55Z"/>
      <path class="cls-3" d="M192.94,225.71c.6-.54,1.22-1.05,1.85-1.55-.63.5-1.25,1.01-1.85,1.55Z"/>
      <path class="cls-3" d="M142,215.18c.48-.08.95-.16,1.43-.22-.48.06-.95.14-1.43.22Z"/>
      <path class="cls-3" d="M195.2,223.85c.58-.45,1.17-.89,1.78-1.31-.6.42-1.19.86-1.78,1.31Z"/>
      <path class="cls-3" d="M228.63,315.75c-.53.55-1.08,1.11-1.64,1.67.55-.56,1.1-1.12,1.64-1.67Z"/>
      <path class="cls-3" d="M140.11,215.55c.47-.1.94-.2,1.4-.28-.47.08-.94.18-1.4.28Z"/>
      <path class="cls-3" d="M120.71,288.46h64.87l12.1-46.63,10.24,63.46,12.15-49.67,7.04,34.71,1.95-4.99,23.69.07c.42-.69.86-1.42,1.32-2.22,3.04-5.26,4.6-9.02,5.26-10.78,3.69-9.91,3.31-20.67-1.09-30.28-4.41-9.62-12.28-16.96-22.2-20.64-4.45-1.67-9.11-2.5-13.81-2.5-13.17,0-25.43,6.5-32.79,17.37l-3.68,5.43-3.69-5.43c-7.36-10.88-19.62-17.37-32.79-17.37-4.71,0-9.35.83-13.81,2.5-20.45,7.63-30.89,30.47-23.27,50.93.83,2.22,2.86,6.97,7.02,13.7.47.75.97,1.54,1.48,2.33Z"/>
      <path class="cls-3" d="M232.09,289.81l-6.33,16.22-6.09-30.06-12.65,51.68-10.35-64.22-7.66,29.47h-65.3c.24.35.5.7.75,1.04.34.47.67.95,1.02,1.42.29.39.59.79.88,1.18.32.43.64.86.97,1.3.31.4.63.81.94,1.22.33.42.65.84.99,1.27.32.41.65.82.98,1.22.34.42.68.85,1.03,1.27.33.41.68.81,1.02,1.22.36.43.71.85,1.07,1.28.35.41.7.81,1.05,1.22.37.43.74.86,1.12,1.29.36.4.72.81,1.08,1.21.39.43.78.87,1.17,1.3.37.4.74.81,1.11,1.21.4.44.81.87,1.22,1.31.37.4.75.8,1.13,1.2.42.44.85.89,1.28,1.33.38.39.76.79,1.15,1.18.44.45.89.9,1.34,1.36.38.39.77.77,1.16,1.16.47.46.94.92,1.41,1.38.39.38.78.76,1.17,1.14.49.47.99.95,1.49,1.42.38.37.77.73,1.16,1.1.54.5,1.08,1.01,1.63,1.51.36.34.72.67,1.09,1.01.61.56,1.24,1.12,1.86,1.68.31.28.62.56.94.84.94.84,1.9,1.68,2.87,2.52l25.98,22.6,25.98-22.6c1.29-1.12,2.54-2.23,3.77-3.33.41-.37.8-.73,1.2-1.1.8-.73,1.6-1.45,2.36-2.17.46-.43.91-.86,1.36-1.29.68-.64,1.35-1.28,2.01-1.9.47-.45.92-.9,1.38-1.35.61-.59,1.21-1.18,1.8-1.77.46-.46.91-.91,1.36-1.37.55-.56,1.1-1.12,1.64-1.67.44-.46.88-.91,1.31-1.37.51-.53,1.01-1.06,1.5-1.58.43-.46.85-.91,1.26-1.36.46-.5.91-1,1.36-1.49.41-.46.82-.91,1.22-1.36.42-.47.82-.93,1.22-1.39.4-.46.8-.92,1.19-1.37.36-.42.71-.84,1.06-1.25.4-.47.8-.94,1.18-1.41.3-.36.59-.72.88-1.08.4-.5.81-.99,1.2-1.48.21-.26.4-.51.61-.77,2.92-3.7,5.34-7.05,7.29-9.98l-17.84-.05Z"/>
      <path class="cls-1" d="M149.3,214.56s-.1,0-.15,0c.1,0,.21,0,.31,0-.06,0-.11,0-.17,0Z"/>
      <path class="cls-1" d="M187.26,231.83c.09-.11.17-.22.26-.33-.09.11-.17.22-.26.33Z"/>
      <path class="cls-1" d="M182.38,229.5c.1.11.19.23.28.34-.1-.11-.19-.23-.28-.34Z"/>
      <path class="cls-1" d="M192.8,225.84s.09-.09.14-.13c-.05.04-.09.09-.14.13Z"/>
      <path class="cls-1" d="M190.79,227.76c.12-.13.25-.25.37-.37-.12.12-.25.25-.37.37Z"/>
      <path class="cls-1" d="M183.9,231.34c.17.22.34.43.5.65-.17-.22-.33-.44-.5-.65Z"/>
      <path class="cls-1" d="M176.28,223.8c.17.13.35.27.52.4-.17-.14-.34-.27-.52-.4Z"/>
      <path class="cls-1" d="M180.3,227.31c.18.17.35.35.52.52-.17-.18-.35-.35-.52-.52Z"/>
      <path class="cls-1" d="M178.57,225.68c.11.09.21.19.31.29-.11-.1-.21-.2-.31-.29Z"/>
      <path class="cls-1" d="M201.67,219.67s-.02.01-.03.02c.02,0,.03-.02.05-.03,0,0,0,0-.01,0Z"/>
      <path class="cls-1" d="M208.86,216.65c.16-.05.32-.1.48-.15-.16.05-.32.1-.48.15Z"/>
      <path class="cls-1" d="M194.79,224.16c.14-.11.27-.21.41-.32-.14.11-.27.21-.41.32Z"/>
      <path class="cls-1" d="M211.29,215.96c.15-.04.3-.08.46-.12-.15.04-.31.08-.46.12Z"/>
      <path class="cls-1" d="M203.92,218.56c.13-.06.26-.11.39-.17-.13.06-.26.11-.39.17Z"/>
      <path class="cls-1" d="M206.23,217.59c.14-.05.27-.11.41-.16-.14.05-.27.11-.41.16Z"/>
      <path class="cls-1" d="M196.97,222.53c.06-.04.12-.09.18-.13-.06.04-.12.09-.18.13Z"/>
      <path class="cls-1" d="M199.22,221.06c.1-.06.21-.13.32-.19-.11.06-.21.12-.32.19Z"/>
      <path class="cls-1" d="M174.35,222.38c.11.08.22.16.33.24-.11-.08-.22-.16-.33-.24Z"/>
      <path class="cls-1" d="M167.23,218.39c.13.06.27.12.4.18-.13-.06-.27-.12-.4-.18Z"/>
      <path class="cls-1" d="M139.6,215.65c.17-.04.34-.07.5-.11-.17.04-.34.07-.5.11Z"/>
      <path class="cls-1" d="M141.51,215.26c.16-.03.32-.05.49-.08-.16.03-.32.05-.49.08Z"/>
      <path class="cls-1" d="M143.42,214.96c.15-.02.3-.04.46-.06-.15.02-.3.03-.46.06Z"/>
      <path class="cls-1" d="M147.25,214.61c.14,0,.28,0,.42-.01-.14,0-.28,0-.42.01Z"/>
      <path class="cls-1" d="M145.34,214.74c.14-.01.29-.02.43-.03-.14.01-.29.02-.43.03Z"/>
      <path class="cls-1" d="M137.71,216.12c.15-.04.3-.08.45-.12-.15.04-.3.07-.45.12Z"/>
      <path class="cls-1" d="M118.32,292.9h0c-.53-.78-1.03-1.54-1.51-2.28.48.74.98,1.5,1.51,2.28Z"/>
      <path class="cls-1" d="M135.83,216.68c.05-.02.11-.03.16-.05-.05.02-.11.03-.16.05Z"/>
      <path class="cls-1" d="M164.94,217.44c.1.04.19.08.29.11-.1-.04-.19-.08-.29-.11Z"/>
      <path class="cls-1" d="M171.91,220.82c.16.1.32.19.48.29-.16-.1-.32-.19-.48-.29Z"/>
      <path class="cls-1" d="M214.1,215.33c.11-.02.22-.04.33-.06-.11.02-.22.04-.33.06Z"/>
      <path class="cls-1" d="M169.79,219.62c.11.06.21.12.32.17-.11-.06-.21-.12-.32-.17Z"/>
      <path class="cls-1" d="M159.86,215.86c.08.02.17.04.25.07-.08-.02-.17-.04-.25-.07Z"/>
      <path class="cls-1" d="M154.6,214.89c.08,0,.16.02.24.03-.08-.01-.16-.02-.24-.03Z"/>
      <path class="cls-1" d="M151.96,214.65s.04,0,.06,0c-.02,0-.04,0-.06,0Z"/>
      <path class="cls-1" d="M157.22,215.29c.05.01.11.02.16.03-.05-.01-.11-.02-.16-.03Z"/>
      <path class="cls-1" d="M162.33,216.54c.1.03.19.06.29.09-.1-.03-.19-.06-.29-.09Z"/>
      <path class="cls-1" d="M227.63,214.9c.17.02.34.04.5.06-.17-.02-.34-.04-.5-.06Z"/>
      <path class="cls-1" d="M222.24,214.56c-.06,0-.11,0-.17,0,.11,0,.21,0,.32,0-.05,0-.1,0-.15,0Z"/>
      <path class="cls-1" d="M231.26,215.51c.24.05.48.1.72.15-.24-.05-.48-.1-.72-.15Z"/>
      <path class="cls-1" d="M234.75,216.39c.34.1.69.2,1.03.31-.34-.11-.68-.21-1.03-.31Z"/>
      <path class="cls-1" d="M185.77,233.88c-.07-.1-.14-.19-.21-.29.07.1.14.2.21.3,0,0,0,0,0,0Z"/>
      <path class="cls-1" d="M263.5,273.98c-.79,2.11-2.45,6.04-5.59,11.46-.8,1.38-1.69,2.86-2.69,4.43-7.08,11.12-19.44,26.82-40.55,45.17l-28.9,25.13h0s28.9-25.13,28.9-25.13c21.11-18.36,33.47-34.06,40.55-45.17,1-1.57,1.89-3.05,2.69-4.43,3.13-5.42,4.8-9.35,5.59-11.46,8.49-22.79-3.1-48.15-25.9-56.64-.47-.17-.93-.33-1.4-.49.47.16.93.31,1.4.49,22.8,8.49,34.39,33.86,25.9,56.64Z"/>
      <path class="cls-1" d="M233.03,215.92c.29.07.57.14.86.22-.29-.08-.57-.15-.86-.22Z"/>
      <path class="cls-1" d="M229.46,215.17c.2.03.4.06.6.1-.2-.04-.4-.06-.6-.1Z"/>
      <path class="cls-1" d="M216.64,214.93c.11-.01.23-.03.34-.05-.11.01-.23.03-.34.05Z"/>
      <path class="cls-1" d="M225.77,214.71c.15.01.29.02.44.03-.15-.01-.29-.02-.44-.03Z"/>
      <path class="cls-1" d="M219.51,214.65s.07,0,.1,0c-.03,0-.07,0-.1,0Z"/>
      <path class="cls-1" d="M223.88,214.6c.14,0,.27,0,.41.01-.14,0-.27,0-.41-.01Z"/>
      <path class="cls-1" d="M118.33,292.91c7.32,10.86,19.29,25.4,38.55,42.14l28.89,25.13,28.9-25.13c21.11-18.36,33.47-34.06,40.55-45.17,1-1.57,1.89-3.05,2.69-4.43,3.13-5.42,4.8-9.35,5.59-11.46,8.49-22.79-3.1-48.15-25.9-56.64-.46-.17-.93-.33-1.4-.49-.15-.05-.29-.1-.44-.15-.34-.11-.68-.21-1.03-.31-.29-.08-.57-.18-.86-.26-.29-.08-.57-.15-.86-.22-.35-.09-.7-.18-1.05-.26-.24-.05-.48-.1-.72-.15-.4-.08-.8-.17-1.2-.24-.2-.04-.4-.06-.6-.1-.44-.07-.89-.15-1.33-.21-.17-.02-.34-.04-.5-.06-.47-.06-.95-.11-1.42-.16-.15-.01-.29-.02-.44-.03-.49-.04-.99-.07-1.48-.1-.14,0-.27,0-.41-.01-.5-.02-1-.03-1.49-.03-.11,0-.21,0-.32,0-.82,0-1.65.03-2.46.08-.03,0-.07,0-.1,0-.85.05-1.69.13-2.53.23-.11.01-.23.03-.34.05-.74.09-1.47.21-2.2.34-.11.02-.22.04-.33.06-.79.15-1.58.32-2.35.51-.15.04-.31.08-.46.12-.65.17-1.3.35-1.94.55-.16.05-.32.1-.48.15-.75.24-1.49.5-2.22.77-.14.05-.27.11-.41.16-.65.25-1.29.52-1.92.8-.13.06-.26.11-.39.17-.76.35-1.5.71-2.24,1.1-.02,0-.03.02-.05.03-.71.37-1.41.77-2.1,1.19-.11.06-.21.12-.32.19-.7.43-1.39.87-2.07,1.34-.06.04-.12.09-.18.13-.6.42-1.19.86-1.78,1.31-.14.11-.27.21-.41.32-.63.5-1.25,1.01-1.85,1.55-.05.04-.09.09-.14.13-.56.5-1.1,1.02-1.64,1.55-.12.12-.25.25-.37.37-1.15,1.17-2.25,2.42-3.27,3.73-.09.11-.17.22-.26.33-.51.67-1.01,1.35-1.49,2.06,0,0,0,0,0,0,0,0,0,0,0,0-.07-.1-.14-.2-.21-.3-.37-.54-.76-1.08-1.16-1.6-.17-.22-.33-.44-.5-.65-.4-.51-.81-1.01-1.23-1.5-.1-.11-.19-.23-.28-.34-.5-.57-1.02-1.12-1.56-1.67-.17-.18-.35-.35-.52-.52-.46-.46-.94-.91-1.42-1.34-.11-.1-.21-.2-.31-.29-.58-.51-1.17-1-1.77-1.48-.17-.14-.34-.27-.52-.4-.53-.41-1.06-.8-1.6-1.18-.11-.08-.22-.16-.33-.24-.64-.44-1.3-.87-1.96-1.27-.16-.1-.32-.19-.48-.29-.59-.35-1.19-.69-1.8-1.02-.11-.06-.21-.12-.32-.17-.71-.37-1.43-.72-2.15-1.05-.13-.06-.27-.12-.4-.18-.66-.29-1.33-.57-2-.83-.1-.04-.19-.08-.29-.11-.77-.29-1.54-.56-2.33-.81-.1-.03-.19-.06-.29-.09-.73-.23-1.47-.43-2.21-.62-.08-.02-.17-.04-.25-.07-.82-.2-1.65-.38-2.48-.54-.05-.01-.11-.02-.16-.03-.79-.15-1.59-.27-2.39-.37-.08-.01-.16-.02-.24-.03-.86-.1-1.72-.19-2.58-.24-.02,0-.04,0-.06,0-.83-.05-1.66-.07-2.5-.08-.1,0-.21,0-.31,0-.49,0-.99.01-1.49.03-.14,0-.28,0-.42.01-.49.02-.98.06-1.48.1-.14.01-.29.02-.43.03-.49.04-.97.1-1.46.16-.15.02-.3.03-.46.06-.48.06-.95.14-1.43.22-.16.03-.32.05-.49.08-.47.08-.94.18-1.4.28-.17.04-.34.07-.5.11-.48.11-.96.23-1.44.36-.15.04-.3.07-.45.12-.57.16-1.14.33-1.71.51-.05.02-.11.03-.16.05-.63.2-1.27.42-1.89.66-22.79,8.5-34.38,33.86-25.88,56.64.93,2.49,3.08,7.48,7.4,14.48h0c.43.7.89,1.42,1.37,2.16.48.74.98,1.5,1.51,2.28h0s0,0,0,0ZM112.21,272.43c-7.62-20.45,2.82-43.3,23.27-50.93,4.46-1.67,9.11-2.5,13.81-2.5,13.17,0,25.43,6.49,32.79,17.37l3.69,5.43,3.68-5.43c7.36-10.87,19.62-17.37,32.79-17.37,4.71,0,9.36.83,13.81,2.5,9.92,3.69,17.79,11.03,22.2,20.64,4.4,9.62,4.77,20.38,1.09,30.28-.67,1.77-2.22,5.52-5.26,10.78-.94,1.61-1.77,2.96-2.6,4.28-2.2,3.45-5.11,7.62-8.85,12.35-.2.26-.4.51-.61.77-.39.48-.79.98-1.2,1.48-.29.36-.58.71-.88,1.08-.38.46-.78.93-1.18,1.41-.35.42-.7.83-1.06,1.25-.39.45-.79.91-1.19,1.37-.4.46-.8.92-1.22,1.39-.4.45-.81.9-1.22,1.36-.45.49-.9.99-1.36,1.49-.42.45-.84.9-1.26,1.36-.49.52-.99,1.05-1.5,1.58-.43.45-.87.91-1.31,1.37-.53.55-1.08,1.11-1.64,1.67-.45.45-.89.91-1.36,1.37-.59.58-1.19,1.18-1.8,1.77-.46.45-.91.9-1.38,1.35-.65.63-1.33,1.27-2.01,1.9-.45.43-.9.85-1.36,1.29-.77.72-1.57,1.44-2.36,2.17-.4.37-.79.73-1.2,1.1-1.22,1.1-2.48,2.21-3.77,3.33l-25.98,22.6-25.98-22.6c-.97-.84-1.92-1.68-2.87-2.52-.32-.28-.62-.56-.94-.84-.62-.56-1.25-1.12-1.86-1.68-.37-.34-.73-.67-1.09-1.01-.55-.5-1.09-1.01-1.63-1.51-.39-.37-.77-.73-1.16-1.1-.5-.47-1-.95-1.49-1.42-.39-.38-.78-.76-1.17-1.14-.47-.46-.95-.92-1.41-1.38-.39-.39-.77-.77-1.16-1.16-.45-.45-.9-.9-1.34-1.36-.39-.39-.77-.79-1.15-1.18-.43-.44-.85-.89-1.28-1.33-.38-.4-.76-.8-1.13-1.2-.41-.44-.82-.87-1.22-1.31-.37-.4-.74-.81-1.11-1.21-.39-.43-.78-.87-1.17-1.3-.36-.4-.72-.81-1.08-1.21-.38-.43-.75-.86-1.12-1.29-.35-.41-.7-.81-1.05-1.22-.36-.43-.72-.85-1.07-1.28-.34-.41-.68-.81-1.02-1.22-.35-.42-.69-.85-1.03-1.27-.33-.41-.66-.82-.98-1.22-.33-.42-.66-.84-.99-1.27-.32-.41-.63-.81-.94-1.22-.33-.43-.65-.86-.97-1.3-.29-.39-.59-.79-.88-1.18-.35-.47-.68-.95-1.02-1.42-.84-1.18-1.67-2.36-2.46-3.53-1-1.48-1.93-2.92-2.78-4.29-4.15-6.73-6.19-11.48-7.02-13.7Z"/>
      <path class="cls-1" d="M148.75,321.6c-.39-.38-.78-.76-1.17-1.14.39.38.78.76,1.17,1.14Z"/>
      <path class="cls-1" d="M143.67,316.56c-.39-.39-.77-.79-1.15-1.18.38.39.76.79,1.15,1.18Z"/>
      <path class="cls-1" d="M136.62,309.04c-.36-.4-.72-.81-1.08-1.21.36.4.72.81,1.08,1.21Z"/>
      <path class="cls-1" d="M141.25,314.05c-.38-.4-.76-.8-1.13-1.2.37.4.75.8,1.13,1.2Z"/>
      <path class="cls-1" d="M138.9,311.54c-.37-.4-.74-.81-1.11-1.21.37.4.74.81,1.11,1.21Z"/>
      <path class="cls-1" d="M146.17,319.08c-.39-.39-.77-.77-1.16-1.16.38.39.77.77,1.16,1.16Z"/>
      <path class="cls-1" d="M223.84,320.56c-.46.45-.91.9-1.38,1.35.47-.45.92-.9,1.38-1.35Z"/>
      <path class="cls-1" d="M235.29,308.59c-.4.45-.81.9-1.22,1.36.41-.46.82-.91,1.22-1.36Z"/>
      <path class="cls-1" d="M220.46,323.81c-.45.43-.9.85-1.36,1.29.47-.43.91-.86,1.36-1.29Z"/>
      <path class="cls-1" d="M232.71,311.44c-.41.45-.84.9-1.26,1.36.43-.46.85-.91,1.26-1.36Z"/>
      <path class="cls-1" d="M227,317.42c-.45.45-.9.91-1.36,1.37.46-.46.91-.91,1.36-1.37Z"/>
      <path class="cls-1" d="M237.7,305.83c-.39.45-.79.91-1.19,1.37.4-.46.8-.92,1.19-1.37Z"/>
      <path class="cls-1" d="M239.95,303.17c-.38.46-.78.93-1.18,1.41.4-.47.8-.94,1.18-1.41Z"/>
      <path class="cls-1" d="M154.12,326.64c-.37-.34-.73-.67-1.09-1.01.36.34.72.67,1.09,1.01Z"/>
      <path class="cls-1" d="M229.95,314.38c-.43.45-.87.91-1.31,1.37.45-.46.88-.91,1.31-1.37Z"/>
      <path class="cls-1" d="M156.92,329.17c-.32-.28-.62-.56-.94-.84.31.28.62.56.94.84Z"/>
      <path class="cls-1" d="M216.73,327.26c-.4.37-.79.73-1.2,1.1.41-.37.8-.73,1.2-1.1Z"/>
      <path class="cls-1" d="M242.03,300.61c-.39.48-.79.98-1.2,1.48.4-.5.81-.99,1.2-1.48Z"/>
      <path class="cls-1" d="M128.28,299.06c-.32-.41-.63-.81-.94-1.22.31.4.63.81.94,1.22Z"/>
      <path class="cls-1" d="M151.4,324.12c-.39-.37-.77-.73-1.16-1.1.38.37.77.73,1.16,1.1Z"/>
      <path class="cls-1" d="M130.26,301.55c-.33-.41-.66-.82-.98-1.22.32.41.65.82.98,1.22Z"/>
      <path class="cls-1" d="M134.43,306.54c-.35-.41-.7-.81-1.05-1.22.35.41.7.81,1.05,1.22Z"/>
      <path class="cls-1" d="M132.3,304.04c-.34-.41-.68-.81-1.02-1.22.33.41.68.81,1.02,1.22Z"/>
      <path class="cls-1" d="M126.37,296.55c-.29-.39-.59-.79-.88-1.18.29.39.59.79.88,1.18Z"/>
      <path class="cls-1" d="M229.07,285.35l-1.95,4.99-7.04-34.71-12.15,49.67-10.24-63.46-12.1,46.63h-64.87c-.52-.79-1.02-1.58-1.48-2.33.84,1.37,1.78,2.81,2.78,4.29.79,1.17,1.62,2.35,2.46,3.53-.25-.35-.51-.7-.75-1.04h65.3l7.66-29.47,10.35,64.22,12.65-51.68,6.09,30.06,6.33-16.22,17.84.05c-1.96,2.93-4.38,6.28-7.29,9.98,3.74-4.74,6.65-8.91,8.85-12.35.83-1.31,1.65-2.67,2.6-4.28-.46.79-.9,1.52-1.32,2.22l-23.69-.07Z"/>
      <path class="cls-3" d="M236.35,555.3c.78-.34,1.56-.66,2.36-.95-.8.29-1.58.61-2.36.95Z"/>
      <path class="cls-3" d="M234.02,556.4c.67-.34,1.34-.66,2.02-.96-.68.3-1.36.62-2.02.96Z"/>
      <path class="cls-3" d="M238.8,554.32c.77-.28,1.56-.54,2.35-.78-.79.24-1.58.5-2.35.78Z"/>
      <path class="cls-3" d="M247.07,552.18c.45-.07.89-.13,1.34-.18-.45.06-.9.11-1.34.18Z"/>
      <path class="cls-3" d="M241.45,553.45c.48-.14.96-.27,1.45-.4-.49.13-.97.26-1.45.4Z"/>
      <path class="cls-3" d="M231.61,557.71c.69-.41,1.4-.8,2.11-1.16-.72.37-1.42.76-2.11,1.16Z"/>
      <path class="cls-3" d="M243.28,552.95c.48-.12.97-.23,1.46-.33-.49.1-.98.21-1.46.33Z"/>
      <path class="cls-3" d="M245.16,552.53c.47-.1.95-.18,1.42-.26-.48.08-.95.16-1.42.26Z"/>
      <path class="cls-3" d="M227.18,560.69c.62-.48,1.26-.93,1.91-1.38-.65.44-1.28.9-1.91,1.38Z"/>
      <path class="cls-3" d="M229.51,559.04c.56-.37,1.13-.73,1.71-1.08-.58.35-1.15.71-1.71,1.08Z"/>
      <path class="cls-3" d="M225.22,562.29c.53-.45,1.07-.89,1.61-1.32-.55.43-1.09.87-1.61,1.32Z"/>
      <path class="cls-3" d="M249,551.92c.41-.05.83-.08,1.24-.11-.41.03-.83.07-1.24.11Z"/>
      <path class="cls-3" d="M252.91,551.66c.31,0,.63,0,.94,0-.31,0-.63,0-.94,0Z"/>
      <path class="cls-3" d="M250.95,551.75c.37-.02.74-.04,1.11-.05-.37.02-.74.03-1.11.05Z"/>
      <path class="cls-3" d="M254.88,551.66c.21,0,.41.02.62.03-.21,0-.41-.02-.62-.03Z"/>
      <path class="cls-3" d="M212.73,580.04c-.3.79-.59,1.58-.84,2.39,0,0,0,0,0,0,.25-.81.54-1.61.84-2.4Z"/>
      <path class="cls-3" d="M212.88,579.64c.61-1.55,1.3-3.06,2.07-4.51-.77,1.46-1.46,2.96-2.07,4.51Z"/>
      <path class="cls-3" d="M219.51,568.17c.51-.64,1.05-1.26,1.6-1.88-.55.61-1.08,1.23-1.6,1.88Z"/>
      <path class="cls-3" d="M198.03,574.8c.63.21,1.26.44,1.88.68-.62-.24-1.25-.47-1.88-.68Z"/>
      <path class="cls-3" d="M195.4,574.01c.76.2,1.51.42,2.25.66-.74-.24-1.5-.46-2.25-.66Z"/>
      <path class="cls-3" d="M187.53,572.66c.72.06,1.45.13,2.16.23-.72-.09-1.44-.17-2.16-.23Z"/>
      <path class="cls-3" d="M203.02,576.82c.59.28,1.17.58,1.75.89-.58-.31-1.16-.6-1.75-.89Z"/>
      <path class="cls-3" d="M184.76,572.52c.82.01,1.65.05,2.47.11-.82-.06-1.64-.1-2.47-.11Z"/>
      <path class="cls-3" d="M192.85,573.41c.68.14,1.35.29,2.02.46-.67-.17-1.34-.32-2.02-.46Z"/>
      <path class="cls-3" d="M190.13,572.94c.79.11,1.58.24,2.37.39-.79-.15-1.58-.28-2.37-.39Z"/>
      <path class="cls-3" d="M215.19,574.67c.36-.66.73-1.31,1.12-1.95-.39.64-.76,1.29-1.12,1.95Z"/>
      <path class="cls-3" d="M207.75,579.44c.55.35,1.09.71,1.62,1.09-.53-.38-1.07-.74-1.62-1.09Z"/>
      <path class="cls-3" d="M223.06,564.26c.59-.58,1.21-1.15,1.83-1.7-.63.55-1.24,1.11-1.83,1.7Z"/>
      <path class="cls-3" d="M205.42,578.05c.67.37,1.32.75,1.97,1.15-.65-.41-1.31-.79-1.97-1.15Z"/>
      <path class="cls-3" d="M216.42,572.55c.42-.69.87-1.35,1.33-2.01-.46.66-.91,1.33-1.33,2.01Z"/>
      <path class="cls-3" d="M218.05,570.11c.43-.6.87-1.19,1.33-1.76-.46.58-.9,1.16-1.33,1.76Z"/>
      <path class="cls-3" d="M210.03,581.01c.53.39,1.06.79,1.57,1.2-.52-.41-1.04-.82-1.57-1.2Z"/>
      <path class="cls-3" d="M162.87,577.93c.42-.23.85-.46,1.28-.68-.43.22-.86.45-1.28.68Z"/>
      <path class="cls-3" d="M164.58,577.04c.44-.22.88-.43,1.32-.63-.44.2-.88.41-1.32.63Z"/>
      <path class="cls-3" d="M182.16,572.56c.77-.03,1.54-.04,2.31-.04-.77,0-1.54,0-2.31.04Z"/>
      <path class="cls-3" d="M166.31,576.23c.45-.2.91-.39,1.36-.58-.46.18-.91.38-1.36.58Z"/>
      <path class="cls-3" d="M221.36,566.03c.54-.59,1.1-1.18,1.67-1.74-.57.56-1.13,1.14-1.67,1.74Z"/>
      <path class="cls-3" d="M161.14,578.93c.43-.26.86-.52,1.3-.77-.44.25-.87.5-1.3.77Z"/>
      <path class="cls-3" d="M159.23,580.16c.51-.34,1.01-.68,1.53-1-.51.32-1.02.66-1.53,1Z"/>
      <path class="cls-3" d="M176.81,573.11c.8-.13,1.6-.24,2.41-.33-.8.09-1.61.2-2.41.33Z"/>
      <path class="cls-3" d="M168.06,575.5c.47-.18.93-.36,1.4-.52-.47.16-.94.34-1.4.52Z"/>
      <path class="cls-3" d="M179.37,572.76c.84-.09,1.69-.15,2.53-.19-.85.04-1.69.1-2.53.19Z"/>
      <path class="cls-3" d="M174.04,573.65c.84-.2,1.69-.36,2.54-.51-.85.15-1.7.31-2.54.51Z"/>
      <path class="cls-3" d="M169.85,574.85c.47-.16.95-.32,1.43-.46-.48.14-.95.3-1.43.46Z"/>
      <path class="cls-3" d="M171.57,574.31c.8-.24,1.61-.45,2.42-.64-.81.19-1.62.41-2.42.64Z"/>
      <path class="cls-3" d="M200.52,575.72c.71.29,1.42.59,2.12.91-.7-.32-1.41-.63-2.12-.91Z"/>
      <path class="cls-1" d="M236.05,555.44c.1-.05.2-.09.31-.14-.1.04-.2.09-.31.14Z"/>
      <path class="cls-1" d="M242.9,553.05c.13-.03.26-.07.39-.1-.13.03-.26.07-.39.1Z"/>
      <path class="cls-1" d="M238.71,554.35s.06-.02.09-.03c-.03.01-.06.02-.09.03Z"/>
      <path class="cls-1" d="M207.39,579.21c.12.08.24.16.36.23-.12-.08-.24-.16-.36-.23Z"/>
      <path class="cls-1" d="M244.74,552.62c.14-.03.28-.06.42-.09-.14.03-.28.06-.42.09Z"/>
      <path class="cls-1" d="M202.64,576.63c.13.06.25.12.38.19-.13-.06-.25-.13-.38-.19Z"/>
      <path class="cls-1" d="M204.77,577.7c.22.12.43.23.65.35-.21-.12-.43-.24-.65-.35Z"/>
      <path class="cls-1" d="M241.31,553.49c-.05.02-.1.04-.16.05.1-.03.2-.06.3-.09-.05.01-.09.02-.14.04Z"/>
      <path class="cls-1" d="M216.32,572.72c.03-.06.07-.11.1-.17-.03.06-.07.11-.1.17Z"/>
      <path class="cls-1" d="M221.11,566.3c.08-.09.17-.18.25-.27-.08.09-.17.18-.25.27Z"/>
      <path class="cls-1" d="M223.05,564.27s-.02.02-.02.02c.01-.01.02-.02.03-.03,0,0,0,0,0,0Z"/>
      <path class="cls-1" d="M219.38,568.35c.05-.06.09-.12.14-.18-.05.06-.09.12-.14.18Z"/>
      <path class="cls-1" d="M233.73,556.55c.1-.05.2-.1.3-.15-.1.05-.2.1-.3.15Z"/>
      <path class="cls-1" d="M212.73,580.04c.05-.13.1-.26.15-.39-.05.13-.1.26-.15.39Z"/>
      <path class="cls-1" d="M214.95,575.13c.08-.15.16-.31.25-.46-.08.15-.17.31-.25.46Z"/>
      <path class="cls-1" d="M231.21,557.95c.13-.08.27-.16.4-.24-.14.08-.27.16-.4.24Z"/>
      <path class="cls-1" d="M209.37,580.53c.22.16.45.32.67.48-.22-.16-.44-.32-.67-.48Z"/>
      <path class="cls-1" d="M224.9,562.56c.11-.09.21-.18.32-.27-.11.09-.21.18-.32.27Z"/>
      <path class="cls-1" d="M226.83,560.97c.12-.09.23-.18.35-.27-.12.09-.23.18-.35.27Z"/>
      <path class="cls-1" d="M229.08,559.31c.14-.09.28-.19.42-.28-.14.09-.28.18-.42.28Z"/>
      <path class="cls-1" d="M159.12,580.23s.07-.05.11-.07c-.04.02-.07.05-.11.07Z"/>
      <path class="cls-1" d="M171.41,574.35s-.09.03-.14.04c.1-.03.2-.06.29-.09-.05.02-.11.03-.16.04Z"/>
      <path class="cls-1" d="M173.99,573.67s.03,0,.05-.01c-.02,0-.03,0-.05.01Z"/>
      <path class="cls-1" d="M169.47,574.98c.13-.04.25-.09.38-.13-.13.04-.25.08-.38.13Z"/>
      <path class="cls-1" d="M176.58,573.14c.08-.01.15-.02.23-.04-.08.01-.15.02-.23.04Z"/>
      <path class="cls-1" d="M246.58,552.27c.16-.03.32-.06.49-.08-.16.03-.33.06-.49.08Z"/>
      <path class="cls-1" d="M179.22,572.78c.05,0,.1-.01.16-.02-.05,0-.1.01-.16.02Z"/>
      <path class="cls-1" d="M162.43,578.16c.14-.08.29-.16.44-.24-.15.08-.29.15-.44.24Z"/>
      <path class="cls-1" d="M160.75,579.16c.13-.08.26-.15.38-.23-.13.08-.26.15-.38.23Z"/>
      <path class="cls-1" d="M165.9,576.41c.14-.06.27-.12.41-.18-.14.06-.27.12-.41.18Z"/>
      <path class="cls-1" d="M217.75,570.54c.1-.14.2-.28.3-.43-.1.14-.2.28-.3.43Z"/>
      <path class="cls-1" d="M181.91,572.57c.08,0,.17,0,.25,0-.08,0-.17,0-.25,0Z"/>
      <path class="cls-1" d="M164.15,577.25c.14-.07.29-.14.43-.21-.14.07-.29.14-.43.21Z"/>
      <path class="cls-1" d="M167.67,575.65c.13-.05.26-.1.39-.15-.13.05-.26.1-.39.15Z"/>
      <path class="cls-1" d="M250.24,551.81c.24-.02.47-.04.71-.06-.24.02-.47.04-.71.06Z"/>
      <path class="cls-1" d="M197.65,574.67c.13.04.25.09.38.13-.13-.04-.25-.09-.38-.13Z"/>
      <path class="cls-1" d="M252.06,551.7c.29-.01.57-.03.86-.04-.29,0-.57.02-.86.04Z"/>
      <path class="cls-1" d="M248.41,552c.2-.02.39-.05.59-.08-.2.02-.39.05-.59.08Z"/>
      <path class="cls-1" d="M253.85,551.66c.34,0,.68,0,1.03,0-.34,0-.68,0-1.03,0Z"/>
      <path class="cls-1" d="M199.91,575.48c.2.08.41.16.61.24-.2-.08-.41-.16-.61-.24Z"/>
      <path class="cls-1" d="M184.47,572.52c.1,0,.19,0,.29,0-.1,0-.19,0-.29,0Z"/>
      <path class="cls-1" d="M189.7,572.89c.14.02.29.04.43.06-.14-.02-.29-.04-.43-.06Z"/>
      <path class="cls-1" d="M187.23,572.63c.1,0,.2.02.3.03-.1,0-.2-.02-.3-.03Z"/>
      <path class="cls-1" d="M194.87,573.88c.18.05.36.09.53.14-.18-.05-.36-.09-.53-.14Z"/>
      <path class="cls-1" d="M211.89,582.43c-.09-.08-.19-.14-.28-.22.09.07.19.14.28.22,0,0,0,0,0,0Z"/>
      <path class="cls-1" d="M192.49,573.34c.12.02.24.05.35.08-.12-.02-.24-.05-.35-.08Z"/>
      <path class="cls-4" d="M82.26,111.17s.08-.03.12-.04c-.04.01-.08.03-.12.04Z"/>
      <path class="cls-4" d="M59.08,167.84l14.21,14.21,4.48-4.48-5.45-5.45,3.31-3.31,5.45,5.45,5.24-5.24-14.21-14.21,3.31-3.31,14.21,14.21,4.46-4.46-5.45-5.45,3.31-3.31,5.45,5.45,5.26-5.26-14.21-14.21,3.31-3.31,14.21,14.21,4.1-4.1c.94-.94,1.46-2.19,1.46-3.52s-.52-2.58-1.46-3.52l-21.38-21.38c-.94-.94-2.19-1.46-3.52-1.46s-2.58.52-3.53,1.46l-38.41,38.41,14.22,14.22,1.65-1.65Z"/>
      <path class="cls-4" d="M80.64,111.84c-.84.44-1.63,1.02-2.34,1.72l-32.93,32.93,32.93-32.93c.71-.71,1.5-1.28,2.34-1.72Z"/>
      <rect class="cls-4" x="120.43" y="76.24" width="10.93" height="49.57" transform="translate(-34.56 118.61) rotate(-45)"/>
      <polygon class="cls-3" points="113.93 125.86 128.47 111.32 115.6 98.45 101.06 112.99 93.15 114.74 112.18 133.77 113.93 125.86"/>
      <path class="cls-3" d="M51.76,210.2h0s-3.31,3.31-3.31,3.31h0s-11.93,11.93-11.93,11.93c-.47.47-.98.88-1.52,1.24-2.41,1.59-5.38,1.99-8.07,1.19-1.48-.44-2.87-1.24-4.04-2.4-.01-.01-.03-.02-.04-.04h0c3.77,3.77,9.89,3.77,13.66,0l38.42-38.42h0s-5.58,5.58-5.58,5.58l-17.6,17.6Z"/>
      <path class="cls-3" d="M22.86,225.44h0s.03.02.04.04c-.01-.01-.03-.02-.04-.04Z"/>
      <path class="cls-3" d="M36.53,225.44c-.47.47-.98.88-1.52,1.24.54-.35,1.04-.77,1.52-1.24l11.93-11.93h0s-11.93,11.93-11.93,11.93Z"/>
      <path class="cls-3" d="M26.94,227.87c2.69.8,5.66.4,8.07-1.19-1.61,1.06-3.46,1.59-5.32,1.59-.93,0-1.85-.13-2.75-.4Z"/>
      <path class="cls-3" d="M4.79,200.74l21.38,21.38c.94.94,2.19,1.46,3.53,1.46s2.58-.52,3.53-1.46l4.1-4.1-14.21-14.21,3.31-3.31,14.21,14.21,4.52-4.52-5.45-5.45,3.31-3.31,5.45,5.45,4.48-4.48-14.21-14.21,3.31-3.31,14.21,14.21,5.22-5.22-5.45-5.45,3.31-3.31,5.45,5.45,5.22-5.22-14.21-14.21,1.65-1.65-14.22-14.22L4.79,193.69c-1.94,1.94-1.94,5.11,0,7.05Z"/>
      <polygon class="cls-3" points="51.76 210.2 69.36 192.6 51.76 210.2 51.76 210.2"/>
      <path class="cls-1" d="M80.64,111.84c.52-.27,1.06-.49,1.62-.66-.55.17-1.1.39-1.62.66Z"/>
      <path class="cls-1" d="M113.35,134.95c3.77,3.77,3.77,9.89,0,13.66l-38.41,38.41h0l38.41-38.41c3.77-3.77,3.77-9.89,0-13.66l-1.18-1.18h0s1.18,1.18,1.18,1.18Z"/>
      <path class="cls-1" d="M91.97,113.56l10.69,10.69-9.52-9.52h0l-1.18-1.18c-1.89-1.89-4.36-2.83-6.83-2.83-.93,0-1.85.13-2.75.4,3.29-.97,6.99-.16,9.58,2.43Z"/>
      <polygon class="cls-1" points="102.66 124.25 112.18 133.77 112.18 133.77 93.15 114.74 93.15 114.74 102.66 124.25"/>
      <polygon class="cls-1" points="112.18 133.77 112.18 133.77 102.66 124.25 112.18 133.77"/>
      <path class="cls-1" d="M26.94,227.87c-1.48-.44-2.87-1.24-4.04-2.4,1.17,1.16,2.56,1.96,4.04,2.4Z"/>
      <rect class="cls-1" x="47.77" y="211.85" width="4.68" height="0" transform="translate(-135.13 97.49) rotate(-45)"/>
      <polygon class="cls-1" points="69.36 192.6 74.94 187.02 74.94 187.02 69.36 192.6"/>
      <path class="cls-4" d="M111.38,573.86c.94-2.33.94-4.95,0-7.27.94,2.33.94,4.95,0,7.27Z"/>
      <polygon class="cls-4" points="96.91 551.05 87.87 542.01 87.87 542.01 87.87 542.01 96.91 551.05"/>
      <path class="cls-3" d="M58.97,557.25h0s3.31-3.31,3.31-3.31h0s11.93-11.93,11.93-11.93c1.89-1.89,4.36-2.83,6.83-2.83h0c2.08,0,4.16.68,5.89,2.01.32.25.64.52.94.81h0c-3.77-3.77-9.89-3.77-13.66,0l-38.42,38.42h0s2.65-2.65,2.65-2.65l20.53-20.53Z"/>
      <path class="cls-3" d="M87.87,542.01h0s0,0,0,0c-.3-.3-.61-.56-.94-.81.33.25.64.52.94.82Z"/>
      <polygon class="cls-3" points="58.97 557.25 38.44 577.78 58.97 557.25 58.97 557.25"/>
      <path class="cls-3" d="M74.21,542.01c1.89-1.89,4.36-2.83,6.83-2.83-2.47,0-4.95.94-6.83,2.83l-11.93,11.93h0s11.93-11.93,11.93-11.93Z"/>
      <path class="cls-1" d="M110.98,565.74c-.44-.84-1.02-1.63-1.72-2.34l-9.04-9.04,9.04,9.04c.71.71,1.28,1.5,1.72,2.34Z"/>
      <path class="cls-1" d="M133,515.93c-.6,0-1.2.23-1.65.69l-34.44,34.44,3.31,3.31,34.44-34.44c.91-.91.91-2.39,0-3.31-.46-.46-1.06-.69-1.65-.69Z"/>
      <rect class="cls-1" x="58.29" y="555.59" width="4.68" height="0" transform="translate(-375.12 205.61) rotate(-45)"/>
      <polygon class="cls-1" points="38.44 577.78 35.79 580.43 35.79 580.43 38.44 577.78"/>
      <path class="cls-1" d="M81.04,539.18h0c2.08,0,4.16.68,5.89,2.01-1.73-1.34-3.81-2.01-5.89-2.01Z"/>
      <path class="cls-3" d="M171.7,32.74l-8.36,4.55c23.5,11.85,53.85,22.49,70.36,5.97,10.56-10.56,10.01-26.79,5.14-43.27h-12.59c-.52,7.53-3.33,16.32-11.42,24.42-19.51,19.51-43.14,8.33-43.14,8.33Z"/>
      <path class="cls-1" d="M235.69,45.27c-18.14,18.14-50.23,6.6-75.36-6.34l3-1.63c-8.99-4.53-16.99-9.25-22.81-12.68-7.06-4.16-21.15-13.38-28.9-24.61h-6.64c4.65,8.14,14.02,18.48,32.67,29.48,23.43,13.82,71.51,42.17,97.95,19.7l-1.91-1.91,4-4,1.91,1.91c10.23-12.03,9.94-28.55,5.27-45.19h-3.05c4.95,17.13,5.21,33.93-6.13,45.27Z"/>
      <path class="cls-1" d="M233.7,43.27c-16.51,16.51-46.86,5.87-70.36-5.97l-3,1.63c25.12,12.94,57.22,24.48,75.36,6.34,11.35-11.35,11.09-28.14,6.13-45.27h-2.99c4.87,16.48,5.42,32.71-5.14,43.27Z"/>
      <path class="cls-1" d="M235.61,49.18l52.63,52.63c4.22,4.22,6.54,9.82,6.54,15.77s-2.32,11.55-6.53,15.76c-8.7,8.7-22.84,8.7-31.54,0l-40.15-40.15c-5.28-5.28-12.3-8.19-19.76-8.19-7.47,0-14.49,2.92-19.76,8.19-10.9,10.9-10.9,28.63,0,39.53l35.15,35.15c.55-.75,1.15-1.48,1.83-2.17.68-.68,1.41-1.28,2.16-1.83l-35.15-35.15c-8.69-8.69-8.69-22.84,0-31.54,4.21-4.21,9.81-6.53,15.77-6.54,5.95,0,11.55,2.32,15.76,6.54l40.15,40.15c10.9,10.9,28.63,10.9,39.53,0,5.28-5.28,8.19-12.3,8.19-19.76,0-7.46-2.91-14.48-8.19-19.76l-52.63-52.63c-.6.71-1.23,1.4-1.91,2.08-.68.68-1.38,1.31-2.09,1.91Z"/>
      <path class="cls-1" d="M233.7,47.27l1.91,1.91c.71-.6,1.41-1.24,2.09-1.91.68-.68,1.31-1.37,1.91-2.08l-1.91-1.91-4,4Z"/>
      <path class="cls-3" d="M233.81,172.27c3.65,3.65,3.65,9.58,0,13.23-3.65,3.65-9.58,3.65-13.23,0-2.96-2.96-3.52-7.4-1.69-10.92l-6.7-6.7c-5.36,7.29-4.77,17.59,1.83,24.19,7.28,7.28,19.07,7.28,26.35,0,7.28-7.28,7.28-19.07,0-26.35-6.6-6.6-16.89-7.19-24.19-1.83l6.7,6.7c3.52-1.83,7.97-1.27,10.92,1.69Z"/>
      <path class="cls-3" d="M212.18,167.87l6.7,6.7c.43-.83.99-1.61,1.69-2.31.7-.7,1.48-1.26,2.31-1.69l-6.7-6.7c-.75.55-1.48,1.15-2.16,1.83-.68.68-1.28,1.41-1.83,2.17Z"/>
      <path class="cls-4" d="M220.58,185.5c3.65,3.65,9.58,3.65,13.23,0,3.65-3.65,3.65-9.58,0-13.23-2.96-2.96-7.4-3.52-10.92-1.69l6.31,6.31-4,4-6.31-6.31c-1.83,3.52-1.27,7.97,1.69,10.92Z"/>
      <path class="cls-4" d="M229.19,176.88l-6.31-6.31c-.83.43-1.61.99-2.31,1.69-.7.7-1.26,1.48-1.69,2.31l6.31,6.31,4-4Z"/>
      <path class="cls-3" d="M132.07,361.8c-11.05-11.05-28.98-11.05-40.03,0l-36.25,36.25h0l40.04,40.04h0l36.25-36.25c11.05-11.05,11.05-28.98,0-40.04Z"/>
      <path class="cls-4" d="M23.41,477.55c-.58-.41-1.15-.83-1.71-1.28.56.45,1.13.87,1.71,1.28Z"/>
      <path class="cls-4" d="M12.83,445.01s.01-.04.02-.06c0,.02-.01.04-.02.06Z"/>
      <path class="cls-4" d="M13.02,444.49c.56-1.52,1.25-3,2.08-4.43-.83,1.43-1.52,2.91-2.08,4.43Z"/>
      <path class="cls-4" d="M16.73,471.05c-2.53-3.44-4.18-7.32-4.95-11.33.78,4.01,2.43,7.89,4.95,11.33Z"/>
      <path class="cls-4" d="M55.79,403.81l-33.36,33.36c-4.58,4.58-7.1,10.67-7.1,17.14,0,6.47,2.51,12.55,7.09,17.13s10.67,7.1,17.14,7.1,12.56-2.52,17.14-7.1l33.36-33.36-34.27-34.27Z"/>
      <path class="cls-4" d="M24.45,478.24c9.21,5.83,21.04,5.83,30.24,0-4.6,2.91-9.86,4.38-15.12,4.38s-10.52-1.46-15.12-4.38Z"/>
      <path class="cls-4" d="M17.6,472.18c.6.74,1.25,1.46,1.94,2.15.69.69,1.41,1.34,2.15,1.94-.74-.6-1.46-1.25-2.15-1.94-.69-.69-1.34-1.41-1.94-2.15Z"/>
      <path class="cls-4" d="M55.79,398.05h0l-36.24,36.24c-1.64,1.64-3.03,3.44-4.19,5.34,1.15-1.9,2.55-3.69,4.19-5.34l36.24-36.24Z"/>
      <path class="cls-4" d="M11.77,459.71c-.18-.95-.31-1.91-.4-2.87.09.96.22,1.92.4,2.87Z"/>
      <polygon class="cls-4" points="59.59 474.32 95.83 438.08 95.83 438.08 59.59 474.32"/>
      <path class="cls-1" d="M56.31,477.14c-.53.39-1.07.75-1.62,1.1.55-.35,1.09-.71,1.62-1.1Z"/>
      <path class="cls-1" d="M58.53,475.33c-.72.65-1.46,1.25-2.22,1.81.76-.56,1.51-1.17,2.22-1.81Z"/>
      <path class="cls-1" d="M24.45,478.24c-.35-.22-.7-.45-1.04-.69.34.24.69.47,1.04.69Z"/>
      <path class="cls-1" d="M12.85,444.94c.05-.15.11-.3.17-.45-.06.15-.12.3-.17.45Z"/>
      <path class="cls-1" d="M15.1,440.06c.09-.15.18-.29.26-.44-.09.15-.18.29-.26.44Z"/>
      <path class="cls-1" d="M12.83,445.01c-1.04,3.01-1.57,6.15-1.57,9.3,0,.84.04,1.69.11,2.53-.07-.84-.12-1.69-.11-2.53,0-3.15.52-6.3,1.57-9.3Z"/>
      <rect class="cls-1" x="75.81" y="389.76" width="0" height="56.62" transform="translate(-273.41 176.06) rotate(-45)"/>
      <path class="cls-1" d="M55.79,398.05l-36.24,36.24c-1.64,1.64-3.03,3.44-4.19,5.34-.09.15-.18.29-.26.44-.83,1.43-1.52,2.91-2.08,4.43-.06.15-.12.3-.17.45,0,.02-.01.04-.02.06-1.04,3.01-1.57,6.15-1.57,9.3,0,.85.04,1.69.11,2.53.09.96.22,1.92.4,2.87.78,4.01,2.43,7.89,4.95,11.33.28.38.57.76.87,1.13.6.74,1.25,1.46,1.94,2.15.69.69,1.41,1.34,2.15,1.94.56.45,1.13.87,1.71,1.28.34.24.69.47,1.04.69,4.6,2.91,9.86,4.38,15.12,4.38s10.52-1.46,15.12-4.38c.55-.35,1.09-.71,1.62-1.1.76-.56,1.51-1.17,2.22-1.81.36-.32.71-.66,1.06-1l36.24-36.24-40.04-40.04ZM56.71,471.44c-4.58,4.58-10.67,7.1-17.14,7.1s-12.56-2.52-17.14-7.1-7.1-10.66-7.09-17.13c0-6.48,2.52-12.56,7.1-17.14l33.36-33.36,34.27,34.27-33.36,33.36Z"/>
      <path class="cls-4" d="M114.61,478.13c-.11-.08-.23-.16-.34-.24.11.08.23.16.34.24Z"/>
      <path class="cls-4" d="M122.64,481.78c-.13-.03-.25-.07-.38-.1.12.03.25.07.38.1Z"/>
      <path class="cls-4" d="M113.79,472.18c4.1,4.1,9.56,6.37,15.36,6.37,4.04,0,7.94-1.11,11.34-3.21l-29.86-29.86c-5.22,8.51-3.97,19.58,3.15,26.71Z"/>
      <path class="cls-4" d="M137.93,481.07c-.28.1-.55.2-.83.29.28-.09.55-.19.83-.29Z"/>
      <path class="cls-4" d="M139.86,480.29c-.27.12-.53.23-.8.34.27-.11.54-.22.8-.34Z"/>
      <path class="cls-4" d="M135.93,481.7c-.27.07-.55.15-.82.22.28-.06.55-.14.82-.22Z"/>
      <path class="cls-4" d="M141.73,479.35c-.24.14-.49.26-.74.38.25-.13.49-.25.74-.38Z"/>
      <path class="cls-4" d="M105.54,467.2c-.24-.54-.47-1.07-.66-1.62.2.55.43,1.09.66,1.62Z"/>
      <path class="cls-4" d="M106.58,469.29c-.3-.55-.6-1.1-.86-1.67.26.57.55,1.12.86,1.67Z"/>
      <path class="cls-4" d="M107.9,471.43c-.41-.6-.8-1.21-1.15-1.83.36.62.74,1.23,1.15,1.83Z"/>
      <path class="cls-4" d="M112.73,476.71c-.09-.08-.18-.15-.27-.23.09.08.18.16.27.23Z"/>
      <path class="cls-4" d="M104.72,465.06c-.18-.53-.35-1.06-.5-1.59.14.54.32,1.06.5,1.59Z"/>
      <path class="cls-4" d="M126.85,482.51s-.09,0-.14-.01c.05,0,.09,0,.14.01Z"/>
      <path class="cls-4" d="M124.8,482.24c-.11-.02-.23-.04-.34-.06.11.02.23.04.34.06Z"/>
      <path class="cls-4" d="M118.4,480.27s-.07-.03-.1-.04c.03.02.07.03.1.04Z"/>
      <path class="cls-4" d="M104.1,462.92c-.13-.53-.26-1.05-.35-1.59.09.53.22,1.06.35,1.59Z"/>
      <path class="cls-4" d="M120.47,481.11c-.1-.03-.19-.07-.29-.11.1.04.19.07.29.11Z"/>
      <path class="cls-4" d="M131.42,482.51c-.12.01-.24.03-.36.04.12,0,.24-.03.36-.04Z"/>
      <path class="cls-4" d="M142.98,478.59c.16-.1.33-.19.48-.29h0c-.16.1-.32.19-.48.29Z"/>
      <path class="cls-4" d="M107.95,471.51c.87,1.25,1.85,2.44,2.97,3.55.01.01.03.02.04.04-.01-.01-.03-.03-.04-.04-1.11-1.11-2.1-2.3-2.97-3.54Z"/>
      <path class="cls-4" d="M133.84,482.18c-.25.05-.5.1-.75.14.25-.04.5-.09.75-.14Z"/>
      <path class="cls-4" d="M129.01,482.62c-.1,0-.19,0-.29,0,.1,0,.19,0,.29,0Z"/>
      <path class="cls-4" d="M116.54,479.32c-.1-.06-.21-.11-.31-.17.1.06.21.11.31.17Z"/>
      <path class="cls-4" d="M103.67,460.73c-.08-.52-.16-1.04-.21-1.56.05.52.13,1.04.21,1.56Z"/>
      <path class="cls-4" d="M105.09,447.56c.15-.4.3-.81.48-1.21-.18.4-.32.8-.48,1.21Z"/>
      <path class="cls-4" d="M106,445.47c.18-.37.35-.75.56-1.11-.2.36-.37.74-.56,1.11Z"/>
      <path class="cls-4" d="M103.43,458.54c-.03-.52-.07-1.03-.07-1.55,0,.52.04,1.03.07,1.55Z"/>
      <path class="cls-4" d="M104.37,449.7c.12-.43.24-.87.39-1.29-.15.43-.26.86-.39,1.29Z"/>
      <path class="cls-4" d="M103.52,454.1c.05-.48.1-.97.18-1.45-.08.48-.12.96-.18,1.45Z"/>
      <path class="cls-4" d="M103.38,456.32c0-.5.02-1.01.05-1.51-.04.5-.05,1-.05,1.51Z"/>
      <path class="cls-4" d="M107.68,442.51c-.21.31-.38.63-.58.95.19-.32.38-.64.58-.95h0Z"/>
      <path class="cls-4" d="M103.85,451.89c.09-.46.17-.92.29-1.38-.11.46-.2.92-.29,1.38Z"/>
      <path class="cls-4" d="M133.49,431.37c.13.02.26.04.4.07-.13-.02-.26-.04-.4-.07Z"/>
      <path class="cls-4" d="M131.41,431.1c.07,0,.15,0,.22.02-.07,0-.15,0-.22-.02Z"/>
      <path class="cls-4" d="M137.85,432.5c.11.04.22.08.33.12-.11-.04-.22-.08-.33-.12Z"/>
      <path class="cls-4" d="M154.93,455.71c.01.3.04.59.04.89,0-.3-.03-.59-.04-.89Z"/>
      <path class="cls-4" d="M135.67,431.83c.14.04.28.07.41.11-.14-.04-.28-.08-.41-.11Z"/>
      <path class="cls-4" d="M154.93,457.87c-.01.3-.01.61-.03.91.02-.3.02-.61.03-.91Z"/>
      <path class="cls-4" d="M154.36,451.33c.07.31.15.62.21.94-.06-.31-.14-.62-.21-.94Z"/>
      <path class="cls-4" d="M154.75,459.99c-.04.32-.06.64-.12.96.05-.32.08-.64.12-.96Z"/>
      <path class="cls-4" d="M139.9,433.34s.09.04.13.06c-.04-.02-.09-.04-.13-.06Z"/>
      <path class="cls-4" d="M141.77,434.29c.11.06.22.12.33.18-.11-.06-.22-.12-.33-.18Z"/>
      <path class="cls-4" d="M118.45,433.33c.28-.13.56-.24.83-.36-.28.12-.56.23-.83.36Z"/>
      <path class="cls-4" d="M120.38,432.55c.29-.11.58-.21.88-.3-.29.09-.59.2-.88.3Z"/>
      <path class="cls-4" d="M115.33,435.04c-.15.1-.32.18-.47.28h0c.15-.1.31-.19.46-.28Z"/>
      <path class="cls-4" d="M116.59,434.27c.25-.14.5-.26.75-.39-.25.13-.5.25-.75.39Z"/>
      <path class="cls-4" d="M122.36,431.93c.29-.08.59-.16.89-.23-.3.07-.59.15-.89.23Z"/>
      <path class="cls-4" d="M126.69,431.13c.26-.02.51-.05.77-.07-.26.02-.52.05-.77.07Z"/>
      <path class="cls-4" d="M124.41,431.46c.28-.05.56-.11.85-.16-.28.04-.57.1-.85.16Z"/>
      <path class="cls-4" d="M129.29,431c.12,0,.25,0,.37,0-.12,0-.25,0-.37,0Z"/>
      <path class="cls-4" d="M153.78,449.13c.1.33.22.67.31,1-.09-.34-.21-.67-.31-1Z"/>
      <path class="cls-4" d="M153.88,464.15c-.1.35-.19.7-.31,1.05.12-.35.21-.7.31-1.05Z"/>
      <path class="cls-4" d="M153.19,466.19c-.14.36-.27.72-.42,1.07.16-.35.29-.72.42-1.07Z"/>
      <path class="cls-4" d="M150.38,442.1c-.87-1.25-1.85-2.44-2.97-3.55-.02-.02-.04-.03-.05-.05.02.02.04.03.05.05,1.11,1.11,2.1,2.3,2.97,3.55Z"/>
      <path class="cls-4" d="M150.65,471.11c.22-.33.41-.68.62-1.02-.2.34-.4.68-.62,1.01h0Z"/>
      <path class="cls-4" d="M154.74,453.53c.04.3.09.6.12.9-.03-.3-.08-.6-.12-.9Z"/>
      <path class="cls-4" d="M152.32,468.17c-.18.37-.35.74-.55,1.09.2-.36.37-.73.55-1.09Z"/>
      <path class="cls-4" d="M152.97,446.89c.16.38.33.76.47,1.15-.14-.39-.31-.77-.47-1.15Z"/>
      <path class="cls-4" d="M154.4,462.09c-.07.33-.13.67-.21,1.01.08-.33.14-.67.21-1.01Z"/>
      <path class="cls-4" d="M150.41,442.16c.42.6.81,1.22,1.17,1.85-.36-.63-.75-1.25-1.17-1.85Z"/>
      <path class="cls-4" d="M143.7,435.49c.12.08.24.16.35.25-.12-.08-.23-.17-.35-.25Z"/>
      <path class="cls-4" d="M145.59,436.91c.09.08.19.16.28.24-.09-.08-.19-.16-.28-.24Z"/>
      <path class="cls-4" d="M144.53,441.44c-4.1-4.1-9.56-6.37-15.36-6.37v-4.07h0v4.07c-4.04,0-7.94,1.11-11.35,3.21l29.86,29.86c5.22-8.51,3.97-19.58-3.15-26.71Z"/>
      <path class="cls-4" d="M151.88,444.59c.25.46.5.93.72,1.4-.22-.47-.47-.94-.72-1.4Z"/>
      <path class="cls-3" d="M107.77,442.37c.91-1.34,1.96-2.62,3.14-3.81,1.19-1.19,2.47-2.24,3.81-3.14.05-.03.1-.06.14-.09h0s-.09.06-.14.09c-1.34.91-2.62,1.96-3.81,3.14-1.19,1.19-2.24,2.47-3.15,3.81-.03.05-.06.09-.09.14h0s.06-.09.09-.14Z"/>
      <path class="cls-3" d="M144.53,472.18c.99-.99,1.88-2.07,2.65-3.21.18-.27.34-.55.51-.82l-29.86-29.86c-.27.17-.55.33-.81.51-1.15.77-2.23,1.66-3.21,2.65-.99.99-1.88,2.06-2.65,3.21-.18.27-.34.55-.51.82l29.86,29.86c.27-.17.55-.33.81-.51,1.15-.78,2.23-1.67,3.21-2.65Z"/>
      <path class="cls-3" d="M150.56,471.25c-.91,1.34-1.95,2.62-3.14,3.81-1.19,1.19-2.47,2.24-3.81,3.14-.05.03-.1.06-.14.09h0s.09-.06.14-.09c1.34-.91,2.62-1.96,3.81-3.14,1.19-1.19,2.24-2.47,3.15-3.81.03-.05.06-.09.09-.14h0s-.06.09-.09.14Z"/>
      <path class="cls-1" d="M104.88,465.57c-.06-.17-.1-.34-.16-.51.06.17.1.34.16.51Z"/>
      <path class="cls-1" d="M105.72,467.62c-.06-.14-.11-.28-.17-.43.06.14.11.29.17.43Z"/>
      <path class="cls-1" d="M106.74,469.61c-.06-.1-.11-.21-.16-.32.06.1.1.21.16.32Z"/>
      <path class="cls-1" d="M129.17,431h0c-.57,0-1.14.02-1.71.06.57-.04,1.14-.06,1.71-.06h0Z"/>
      <path class="cls-1" d="M104.22,463.47c-.05-.18-.08-.37-.12-.55.04.18.07.37.12.55Z"/>
      <path class="cls-1" d="M129.29,431s-.08,0-.12,0h0s.08,0,.12,0Z"/>
      <path class="cls-1" d="M103.75,461.33c-.04-.2-.05-.4-.08-.6.03.2.05.4.08.6Z"/>
      <path class="cls-1" d="M103.46,459.17c-.02-.21-.02-.42-.03-.63.01.21.01.42.03.63Z"/>
      <path class="cls-1" d="M122.26,481.68c-.6-.17-1.21-.35-1.8-.57.59.21,1.19.4,1.8.57Z"/>
      <path class="cls-1" d="M136.08,431.95c.59.16,1.18.35,1.77.56-.58-.21-1.17-.39-1.77-.56Z"/>
      <path class="cls-1" d="M152.6,445.99c.14.29.24.6.37.9-.12-.3-.23-.6-.37-.9Z"/>
      <path class="cls-1" d="M133.89,431.44c.6.11,1.19.24,1.78.4-.59-.15-1.18-.29-1.78-.4Z"/>
      <path class="cls-1" d="M125.26,431.3c.48-.07.95-.12,1.43-.17-.48.05-.96.09-1.43.17Z"/>
      <path class="cls-1" d="M131.63,431.12c.62.06,1.24.15,1.86.25-.62-.1-1.24-.19-1.86-.25Z"/>
      <path class="cls-1" d="M140.03,433.39c.59.27,1.17.58,1.74.9-.57-.32-1.15-.62-1.74-.9Z"/>
      <path class="cls-1" d="M129.66,431.01c.59.01,1.17.04,1.75.09-.58-.05-1.17-.08-1.75-.09Z"/>
      <path class="cls-1" d="M150.38,442.1s.02.03.03.05c-.01-.02-.02-.03-.03-.05Z"/>
      <path class="cls-1" d="M151.58,444.01c.11.19.2.39.3.58-.1-.19-.19-.39-.3-.58Z"/>
      <path class="cls-1" d="M142.1,434.47c.55.32,1.08.66,1.61,1.02-.53-.36-1.06-.7-1.61-1.02Z"/>
      <path class="cls-1" d="M145.87,437.15c.51.43,1,.88,1.49,1.36-.48-.48-.98-.93-1.49-1.36Z"/>
      <path class="cls-1" d="M144.06,435.74c.52.37,1.04.76,1.54,1.17-.5-.41-1.01-.8-1.54-1.17Z"/>
      <path class="cls-1" d="M138.17,432.62c.58.22,1.16.45,1.73.71-.57-.26-1.15-.49-1.73-.71Z"/>
      <path class="cls-1" d="M104.13,450.51c.07-.27.16-.54.24-.81-.08.27-.17.54-.24.81Z"/>
      <path class="cls-1" d="M103.69,452.65c.04-.25.11-.51.15-.76-.05.25-.11.51-.15.76Z"/>
      <path class="cls-1" d="M104.76,448.41c.1-.29.22-.56.33-.85-.11.28-.23.56-.33.85Z"/>
      <path class="cls-1" d="M105.57,446.35c.13-.3.29-.59.43-.88-.14.29-.3.58-.43.88Z"/>
      <path class="cls-1" d="M103.43,454.81c.02-.24.06-.48.08-.72-.03.24-.07.48-.08.72Z"/>
      <path class="cls-1" d="M103.36,456.99c0-.22.02-.45.02-.67,0,.22-.02.45-.02.67Z"/>
      <path class="cls-1" d="M123.24,431.7c.39-.09.78-.16,1.16-.24-.39.07-.78.15-1.16.24Z"/>
      <path class="cls-1" d="M121.25,432.25c.37-.12.73-.22,1.1-.32-.37.1-.74.21-1.1.32Z"/>
      <path class="cls-1" d="M119.29,432.98c.36-.15.72-.29,1.09-.42-.37.13-.73.27-1.09.42Z"/>
      <path class="cls-1" d="M106.55,444.36c.17-.31.36-.6.55-.9-.18.3-.38.6-.55.9Z"/>
      <path class="cls-1" d="M115.33,435.04c.42-.26.83-.53,1.26-.76-.43.24-.84.5-1.26.76Z"/>
      <path class="cls-1" d="M117.34,433.88c.37-.19.74-.38,1.11-.55-.38.17-.74.36-1.11.55Z"/>
      <path class="cls-1" d="M135.11,481.92c-.42.1-.84.18-1.27.26.42-.08.85-.16,1.27-.26Z"/>
      <path class="cls-1" d="M129.16,482.62c.63,0,1.27-.02,1.9-.07-.68.05-1.36.07-2.05.07.05,0,.1,0,.15,0Z"/>
      <path class="cls-1" d="M128.72,482.61c-.62-.01-1.25-.04-1.87-.1.62.06,1.24.09,1.87.1Z"/>
      <path class="cls-1" d="M126.71,482.5c-.64-.06-1.28-.15-1.91-.26.63.11,1.27.2,1.91.26Z"/>
      <path class="cls-1" d="M107.95,471.51s-.03-.05-.05-.08c.02.03.03.05.05.08Z"/>
      <path class="cls-1" d="M133.09,482.31c-.56.09-1.11.15-1.67.2.56-.05,1.12-.11,1.67-.2Z"/>
      <path class="cls-1" d="M124.46,482.19c-.61-.11-1.22-.25-1.82-.41.6.16,1.21.29,1.82.41Z"/>
      <path class="cls-1" d="M116.23,479.15c-.55-.32-1.09-.66-1.62-1.02.53.36,1.07.71,1.62,1.02Z"/>
      <path class="cls-1" d="M120.17,481c-.6-.22-1.19-.46-1.78-.73.58.27,1.18.51,1.78.73Z"/>
      <path class="cls-1" d="M153.44,448.03c.13.36.23.73.34,1.09-.11-.36-.21-.73-.34-1.09Z"/>
      <path class="cls-1" d="M112.46,476.48c-.51-.44-1.02-.89-1.5-1.38.49.48.99.94,1.5,1.38Z"/>
      <path class="cls-1" d="M118.3,480.23c-.6-.28-1.18-.58-1.76-.91.58.32,1.16.63,1.76.91Z"/>
      <path class="cls-1" d="M137.1,481.36c-.39.12-.78.24-1.17.34.39-.11.78-.22,1.17-.34Z"/>
      <path class="cls-1" d="M114.27,477.89c-.53-.37-1.04-.76-1.55-1.18.5.42,1.02.81,1.55,1.18Z"/>
      <path class="cls-1" d="M154.97,456.6c0,.42-.02.84-.04,1.27.02-.42.04-.84.04-1.27Z"/>
      <path class="cls-1" d="M141,479.73c-.38.19-.75.38-1.14.56.38-.17.76-.36,1.14-.56Z"/>
      <path class="cls-1" d="M154.89,458.78c-.03.41-.09.81-.14,1.21.05-.4.11-.81.14-1.21Z"/>
      <path class="cls-1" d="M154.1,450.13c.11.4.18.8.27,1.2-.09-.4-.16-.8-.27-1.2Z"/>
      <path class="cls-1" d="M154.57,452.26c.07.42.12.84.17,1.26-.05-.42-.1-.84-.17-1.26Z"/>
      <path class="cls-1" d="M154.64,460.95c-.06.38-.15.76-.23,1.14.08-.38.17-.76.23-1.14Z"/>
      <path class="cls-1" d="M154.86,454.42c.04.43.05.86.07,1.29-.02-.43-.03-.86-.07-1.29Z"/>
      <path class="cls-1" d="M142.98,478.59c-.41.26-.82.52-1.25.76.42-.24.83-.49,1.25-.76Z"/>
      <path class="cls-1" d="M151.77,469.26c-.16.28-.34.55-.5.83.17-.28.35-.55.5-.83Z"/>
      <path class="cls-1" d="M152.76,467.26c-.14.31-.3.6-.45.9.15-.3.31-.6.45-.9Z"/>
      <path class="cls-1" d="M154.19,463.09c-.09.36-.21.71-.31,1.06.1-.35.22-.7.31-1.06Z"/>
      <path class="cls-1" d="M153.57,465.2c-.11.33-.26.66-.38.99.13-.33.27-.65.38-.99Z"/>
      <path class="cls-1" d="M139.06,480.63c-.37.16-.75.3-1.13.44.38-.14.76-.28,1.13-.44Z"/>
      <path class="cls-1" d="M103.46,459.17c.05.52.13,1.04.21,1.56.03.2.05.4.08.6.09.53.22,1.06.35,1.59.04.18.07.37.12.55.14.54.32,1.06.5,1.59.06.17.1.34.16.51.2.55.43,1.09.66,1.62.06.14.11.29.17.43.26.56.55,1.12.86,1.67.06.1.1.21.16.32.36.62.74,1.23,1.15,1.83.02.03.03.05.05.08.87,1.25,1.85,2.43,2.97,3.54.01.01.03.03.04.04.49.48.99.94,1.5,1.38.09.08.18.16.27.23.5.42,1.02.81,1.55,1.18.11.08.23.16.34.24.53.36,1.07.71,1.62,1.02.1.06.21.11.31.17.58.32,1.16.63,1.76.91.03.02.07.03.1.04.58.27,1.18.51,1.78.73.1.04.19.07.29.11.59.21,1.19.4,1.8.57.12.03.25.07.38.1.6.16,1.21.29,1.82.41.11.02.23.04.34.06.63.11,1.27.2,1.91.26.05,0,.09,0,.14.01.62.06,1.24.09,1.87.1.1,0,.19,0,.29,0,.68,0,1.37-.02,2.05-.07.12,0,.24-.03.36-.04.56-.05,1.12-.11,1.67-.2.25-.04.5-.09.75-.14.42-.08.85-.16,1.27-.26.28-.06.55-.14.82-.22.39-.11.78-.22,1.17-.34.28-.09.55-.19.83-.29.38-.14.76-.28,1.13-.44.27-.11.54-.22.8-.34.38-.17.76-.36,1.14-.56.25-.13.49-.25.74-.38.42-.24.83-.49,1.25-.76.16-.1.32-.19.48-.3l-2.96-2.96c-3.41,2.09-7.3,3.21-11.34,3.21-5.8,0-11.26-2.26-15.36-6.37-7.12-7.12-8.37-18.2-3.15-26.71l-2.96-2.96c-.21.31-.39.63-.58.95-.18.3-.38.6-.55.9-.2.36-.37.74-.56,1.11-.14.29-.3.58-.43.88-.18.4-.32.8-.48,1.21-.11.28-.23.56-.33.85-.15.43-.26.86-.39,1.29-.08.27-.17.54-.24.81-.11.46-.2.92-.29,1.38-.05.25-.11.51-.15.76-.08.48-.12.96-.18,1.45-.03.24-.07.48-.08.72-.04.5-.05,1-.05,1.51,0,.22-.02.45-.02.67,0,.52.04,1.03.07,1.55.01.21.01.42.03.63Z"/>
      <path class="cls-1" d="M117.82,438.28c3.41-2.09,7.3-3.21,11.34-3.21v-4.07c-.57,0-1.14.02-1.71.06-.26.02-.52.05-.77.07-.48.05-.96.09-1.43.17-.28.04-.57.1-.85.16-.39.07-.78.15-1.16.24-.3.07-.59.15-.89.23-.37.1-.74.21-1.1.32-.29.09-.59.2-.88.3-.37.13-.73.27-1.09.42-.28.12-.56.23-.83.36-.38.17-.74.36-1.11.55-.25.13-.5.25-.75.39-.43.24-.84.5-1.26.76-.15.1-.31.19-.46.29l2.96,2.96Z"/>
      <path class="cls-1" d="M129.17,435.08c5.8,0,11.26,2.26,15.36,6.37,7.12,7.12,8.37,18.2,3.15,26.71l2.96,2.96c.22-.33.42-.68.62-1.01.17-.28.35-.55.5-.83.2-.36.37-.73.55-1.09.15-.3.31-.6.45-.9.16-.35.29-.72.42-1.07.13-.33.27-.65.38-.99.12-.35.21-.7.31-1.05.1-.35.22-.7.31-1.06.08-.33.14-.67.21-1.01.08-.38.17-.76.23-1.14.05-.32.08-.64.12-.96.05-.4.11-.81.14-1.21.02-.3.02-.61.03-.91.02-.42.04-.84.04-1.27,0-.3-.03-.59-.04-.89-.02-.43-.03-.86-.07-1.29-.03-.3-.08-.6-.12-.9-.05-.42-.1-.84-.17-1.26-.06-.31-.14-.62-.21-.94-.09-.4-.16-.8-.27-1.2-.09-.34-.21-.67-.31-1-.11-.36-.21-.73-.34-1.09-.14-.39-.31-.77-.47-1.15-.12-.3-.23-.6-.37-.9-.22-.47-.47-.94-.72-1.4-.1-.19-.19-.39-.3-.58-.36-.63-.75-1.25-1.17-1.85-.01-.02-.02-.03-.03-.05-.87-1.25-1.85-2.43-2.97-3.55-.02-.02-.04-.03-.05-.05-.48-.48-.98-.93-1.49-1.36-.09-.08-.19-.16-.28-.24-.5-.41-1.01-.8-1.54-1.17-.12-.08-.23-.17-.35-.25-.53-.36-1.06-.7-1.61-1.02-.11-.06-.22-.12-.33-.18-.57-.32-1.15-.62-1.74-.9-.04-.02-.09-.04-.13-.06-.57-.26-1.15-.49-1.73-.71-.11-.04-.22-.08-.33-.12-.58-.21-1.17-.39-1.77-.56-.14-.04-.28-.08-.41-.11-.59-.15-1.18-.29-1.78-.4-.13-.02-.26-.04-.4-.07-.62-.1-1.24-.19-1.86-.25-.07,0-.15,0-.22-.02-.58-.05-1.17-.08-1.75-.09-.12,0-.25,0-.37,0-.04,0-.08,0-.12,0v4.07Z"/>
      <path class="cls-1" d="M147.41,475.06c1.19-1.19,2.24-2.47,3.14-3.81.03-.05.06-.09.09-.14l-2.96-2.96c-.17.27-.32.55-.51.82-.77,1.14-1.66,2.22-2.65,3.21-.99.99-2.06,1.88-3.21,2.65-.27.18-.54.34-.81.51l2.96,2.96s.1-.06.14-.09c1.34-.91,2.62-1.96,3.81-3.14Z"/>
      <path class="cls-1" d="M113.79,441.44c.99-.99,2.07-1.88,3.21-2.65.27-.18.54-.34.81-.51l-2.96-2.96s-.1.06-.14.09c-1.34.91-2.62,1.95-3.81,3.14-1.19,1.19-2.24,2.47-3.14,3.81-.03.05-.06.09-.09.14l2.96,2.96c.17-.27.32-.55.51-.82.77-1.14,1.66-2.22,2.65-3.21Z"/>
      <path class="cls-3" d="M375.82,26.97h0l29.9,41.64c9.12,12.7,26.81,15.6,39.51,6.48,12.7-9.12,15.6-26.81,6.48-39.5L426.16,0h-12.77l-37.57,26.97Z"/>
      <polygon class="cls-4" points="367.78 15.78 375.82 26.97 375.82 26.97 367.78 15.78"/>
      <polygon class="cls-4" points="376.76 21.29 406.4 0 361.47 0 376.76 21.29"/>
      <polygon class="cls-1" points="356.45 0 367.78 15.78 356.46 0 356.45 0"/>
      <rect class="cls-1" x="394.61" y="-9.64" width="0" height="46.25"/>
      <polygon class="cls-1" points="413.39 0 406.4 0 376.76 21.29 361.47 0 356.46 0 367.78 15.78 375.82 26.97 413.39 0"/>
      <path class="cls-4" d="M364.97,34.57c.37.22.75.43,1.12.67-.36-.24-.74-.45-1.12-.67Z"/>
      <path class="cls-4" d="M360.89,32.65c.44.16.89.32,1.32.51-.44-.19-.88-.35-1.32-.51Z"/>
      <path class="cls-4" d="M358.77,31.96c.47.13.95.25,1.41.41-.46-.16-.94-.28-1.41-.41Z"/>
      <path class="cls-4" d="M356.6,31.47c.5.09,1,.18,1.49.3-.49-.12-.99-.21-1.49-.3Z"/>
      <path class="cls-4" d="M362.97,33.52c.41.19.82.38,1.22.6-.4-.22-.81-.4-1.22-.6Z"/>
      <path class="cls-4" d="M327.67,65.59c-.09-.26-.17-.53-.26-.79.09.26.17.53.26.79Z"/>
      <path class="cls-4" d="M326.16,57.34c0-.25-.02-.5-.02-.76,0,.25.01.5.02.76Z"/>
      <path class="cls-4" d="M326.29,59.48c-.03-.28-.06-.56-.08-.84.02.28.05.56.08.84Z"/>
      <path class="cls-4" d="M328.22,66.94c.07.17.13.35.21.52h0c-.08-.18-.14-.35-.22-.52Z"/>
      <path class="cls-4" d="M327.05,63.59c-.08-.28-.14-.57-.21-.85.07.28.13.57.21.85Z"/>
      <path class="cls-4" d="M339.27,39.18c-4.72,3.39-7.83,8.4-8.77,14.13-.65,3.99-.19,8.01,1.33,11.71l34.31-24.63c-7.55-6.53-18.68-7.09-26.86-1.22Z"/>
      <path class="cls-4" d="M366.88,35.81c.34.24.68.47,1.01.73-.33-.26-.67-.49-1.01-.73Z"/>
      <path class="cls-4" d="M369.54,37.95c-.27-.26-.57-.49-.85-.73.28.24.57.48.85.73h0Z"/>
      <path class="cls-4" d="M340.87,33.52c-1.37.65-2.7,1.44-3.98,2.35-.01.01-.03.02-.04.03.02-.01.03-.02.04-.03,1.28-.92,2.61-1.7,3.98-2.35Z"/>
      <path class="cls-4" d="M326.58,61.55c-.05-.29-.1-.58-.15-.87.04.29.09.58.15.87Z"/>
      <path class="cls-4" d="M326.51,52.51c.02-.1.04-.19.05-.29-.02.1-.04.19-.05.29Z"/>
      <path class="cls-4" d="M331.78,40.73c.07-.09.14-.19.22-.28-.08.09-.15.18-.22.28Z"/>
      <path class="cls-4" d="M326.22,54.9c0-.12,0-.24.02-.36-.01.12-.01.24-.02.36Z"/>
      <path class="cls-4" d="M330.54,42.41s.04-.06.06-.09c-.02.03-.04.06-.06.09Z"/>
      <path class="cls-4" d="M329.37,44.32c.05-.09.1-.18.16-.27-.05.09-.11.18-.16.27Z"/>
      <path class="cls-4" d="M327.56,48.41c.04-.11.07-.22.11-.33-.04.11-.07.22-.11.33Z"/>
      <path class="cls-4" d="M326.96,50.39s.02-.09.03-.13c-.01.04-.02.09-.03.13Z"/>
      <path class="cls-4" d="M328.36,46.35c.05-.12.11-.24.16-.35-.05.12-.11.24-.16.35Z"/>
      <path class="cls-4" d="M354.4,31.16c.52.05,1.03.1,1.55.18-.51-.08-1.03-.13-1.55-.18Z"/>
      <path class="cls-4" d="M347.74,31.38c.56-.09,1.12-.18,1.68-.24-.56.05-1.12.14-1.68.24Z"/>
      <path class="cls-4" d="M345.54,31.84c.56-.14,1.13-.28,1.69-.39-.57.1-1.13.24-1.69.39Z"/>
      <path class="cls-4" d="M333.27,39.02c.1-.1.19-.2.29-.3-.1.1-.19.2-.29.3Z"/>
      <path class="cls-4" d="M349.96,31.11c.55-.04,1.09-.08,1.64-.09-.55,0-1.09.05-1.64.09Z"/>
      <path class="cls-4" d="M352.19,31.04c.53,0,1.06.01,1.59.05-.53-.04-1.06-.04-1.59-.05Z"/>
      <path class="cls-4" d="M343.31,32.52c.59-.21,1.17-.41,1.77-.57-.59.16-1.18.36-1.77.57Z"/>
      <path class="cls-4" d="M334.98,37.39c.09-.08.18-.15.27-.23-.09.08-.18.15-.27.23Z"/>
      <path class="cls-4" d="M341.01,33.46c.64-.3,1.29-.58,1.94-.82-.66.24-1.3.52-1.94.82Z"/>
      <path class="cls-4" d="M370.63,74.64c-.1.1-.2.21-.3.31.1-.1.2-.21.3-.31Z"/>
      <path class="cls-4" d="M342.64,80.89c-.32-.12-.64-.23-.95-.37.31.14.63.24.95.37Z"/>
      <path class="cls-4" d="M344.66,81.57c-.31-.09-.62-.17-.92-.27.3.1.61.18.92.27Z"/>
      <path class="cls-4" d="M360.41,81.21c-.52.18-1.05.36-1.58.51.53-.15,1.05-.33,1.58-.51Z"/>
      <path class="cls-4" d="M353.29,82.59c-.32.02-.65.05-.97.05.32,0,.65-.04.97-.05Z"/>
      <path class="cls-4" d="M355.56,82.37c-.35.05-.71.11-1.06.15.35-.03.71-.1,1.06-.15Z"/>
      <path class="cls-4" d="M351.06,82.61c-.31-.01-.61,0-.92-.03.3.02.61.02.92.03Z"/>
      <path class="cls-4" d="M346.73,82.09c-.3-.06-.6-.11-.9-.18.3.07.6.12.9.18Z"/>
      <path class="cls-4" d="M348.86,82.44c-.3-.04-.59-.06-.89-.1.3.05.59.07.89.1Z"/>
      <path class="cls-4" d="M357.93,81.92c-.42.1-.84.21-1.26.29.42-.08.84-.19,1.26-.29Z"/>
      <path class="cls-4" d="M368.92,76.27c-.09.08-.19.16-.29.24.1-.08.19-.16.29-.24Z"/>
      <path class="cls-4" d="M377.31,52.09c.06.3.11.61.15.91-.05-.3-.1-.61-.15-.91Z"/>
      <path class="cls-4" d="M372.13,72.92c-.08.1-.15.2-.23.3.08-.1.16-.2.23-.3Z"/>
      <path class="cls-4" d="M377.73,56.25c0,.29.02.57.02.86,0-.29-.01-.57-.02-.86Z"/>
      <path class="cls-4" d="M377.68,58.56c-.02.25-.03.5-.05.75.02-.25.04-.5.05-.75Z"/>
      <path class="cls-4" d="M376.85,50.07c.08.29.15.59.22.88-.07-.29-.14-.59-.22-.88Z"/>
      <path class="cls-4" d="M376.22,48.08c.1.27.18.54.26.8-.09-.27-.17-.54-.26-.8Z"/>
      <path class="cls-4" d="M377.6,54.15c.03.3.06.61.09.91-.02-.3-.05-.61-.09-.91Z"/>
      <path class="cls-4" d="M377.39,61.14c-.02.12-.05.24-.07.36.02-.12.05-.24.07-.36Z"/>
      <path class="cls-4" d="M374.53,69.34c-.06.1-.12.2-.17.3.06-.1.12-.2.17-.3Z"/>
      <path class="cls-4" d="M373.37,71.23s-.05.09-.08.13c.03-.04.05-.09.08-.13Z"/>
      <path class="cls-4" d="M375.54,67.3c-.06.13-.12.26-.18.39.06-.13.12-.26.18-.39Z"/>
      <path class="cls-4" d="M376.35,65.22c-.04.13-.08.25-.13.38.05-.13.09-.25.13-.38Z"/>
      <path class="cls-4" d="M376.95,63.22c-.02.07-.03.14-.05.21.02-.07.03-.14.05-.21Z"/>
      <path class="cls-4" d="M338.79,79.02c-.33-.19-.66-.38-.98-.59.32.21.65.39.98.59Z"/>
      <path class="cls-4" d="M364.62,74.49c4.72-3.39,7.83-8.4,8.77-14.13l4.02.66h0l-4.02-.66c.65-3.99.19-8.01-1.33-11.71l-34.31,24.63c7.55,6.53,18.68,7.09,26.86,1.22Z"/>
      <path class="cls-4" d="M360.95,81.03c2.11-.78,4.14-1.86,6.06-3.23.02-.02.04-.03.06-.05-.02.02-.04.03-.06.05-1.91,1.37-3.95,2.45-6.05,3.23Z"/>
      <path class="cls-4" d="M375.67,46.7c-.07-.17-.13-.33-.2-.5h0c.07.17.14.33.21.5Z"/>
      <path class="cls-4" d="M336.98,77.84c-.33-.23-.66-.46-.98-.71.32.25.65.48.98.71Z"/>
      <path class="cls-4" d="M334.35,75.72c.29.27.6.51.9.77-.3-.25-.6-.5-.89-.77h0Z"/>
      <path class="cls-4" d="M340.68,80.03c-.32-.16-.65-.3-.97-.47.32.17.65.32.97.47Z"/>
      <path class="cls-3" d="M334.23,75.61c-1.18-1.11-2.27-2.35-3.25-3.72-.98-1.37-1.81-2.8-2.48-4.27-.02-.05-.04-.1-.06-.15h0c.02.06.04.11.07.16.68,1.47,1.51,2.9,2.49,4.27.98,1.37,2.07,2.61,3.25,3.72.04.04.08.07.12.11h0s-.08-.07-.12-.11Z"/>
      <path class="cls-3" d="M369.66,38.06c1.18,1.11,2.27,2.35,3.25,3.72s1.81,2.8,2.48,4.27c.02.05.04.1.06.15h0c-.02-.06-.04-.11-.07-.16-.68-1.47-1.51-2.9-2.49-4.27-.98-1.37-2.07-2.61-3.25-3.72-.04-.04-.08-.07-.12-.11h0s.08.07.12.11Z"/>
      <path class="cls-3" d="M334.29,69.51c.81,1.13,1.73,2.19,2.74,3.13.24.22.49.42.73.63l34.31-24.63c-.12-.3-.23-.59-.37-.88-.58-1.26-1.28-2.47-2.09-3.6-.81-1.13-1.73-2.19-2.74-3.13-.24-.22-.49-.42-.73-.63l-34.31,24.63c.12.3.23.59.37.88.58,1.26,1.28,2.47,2.09,3.6Z"/>
      <path class="cls-1" d="M364.19,34.11c.26.14.52.31.78.46-.26-.15-.51-.32-.78-.46Z"/>
      <path class="cls-1" d="M362.22,33.16c.25.11.5.24.75.36-.25-.12-.5-.25-.75-.36Z"/>
      <path class="cls-1" d="M360.18,32.37c.24.08.48.18.72.27-.24-.09-.47-.19-.72-.27Z"/>
      <path class="cls-1" d="M358.08,31.77c.23.06.46.13.68.2-.23-.06-.45-.14-.68-.2Z"/>
      <path class="cls-1" d="M355.95,31.34c.22.03.43.09.65.13-.22-.04-.43-.09-.65-.13Z"/>
      <path class="cls-1" d="M367.9,36.54c.27.21.53.45.79.68-.27-.23-.52-.47-.79-.68Z"/>
      <path class="cls-1" d="M377.07,50.95c.09.38.17.76.24,1.15-.07-.38-.15-.76-.24-1.15Z"/>
      <path class="cls-1" d="M377.46,53.01c.06.38.1.76.14,1.14-.04-.38-.08-.76-.14-1.14Z"/>
      <path class="cls-1" d="M376.49,48.88c.13.39.25.79.36,1.19-.11-.4-.23-.79-.36-1.19Z"/>
      <path class="cls-1" d="M375.67,46.7c.2.46.39.91.55,1.38-.17-.46-.36-.92-.55-1.38Z"/>
      <path class="cls-1" d="M366.09,35.24c.27.18.53.38.79.57-.26-.19-.52-.39-.79-.57Z"/>
      <path class="cls-1" d="M353.78,31.09c.21.01.41.05.62.07-.21-.02-.41-.05-.62-.07Z"/>
      <path class="cls-1" d="M328.52,46c.26-.57.54-1.13.85-1.68-.31.55-.59,1.11-.85,1.68Z"/>
      <path class="cls-1" d="M377.42,61.02s0,0,0,0c.09-.57.16-1.14.22-1.71-.06.57-.13,1.14-.22,1.71h0Z"/>
      <path class="cls-1" d="M327.67,48.08c.21-.58.44-1.16.7-1.73-.25.57-.49,1.15-.7,1.73Z"/>
      <path class="cls-1" d="M329.53,44.05c.32-.55.65-1.1,1.01-1.63-.36.53-.69,1.08-1.01,1.63Z"/>
      <path class="cls-1" d="M341.69,80.52c-.34-.15-.67-.32-1.01-.49.34.16.67.34,1.01.49Z"/>
      <path class="cls-1" d="M326.56,52.22c.11-.61.24-1.23.4-1.83-.16.61-.29,1.22-.4,1.83Z"/>
      <path class="cls-1" d="M351.6,31.03c.2,0,.4.01.59.02-.2,0-.4-.02-.59-.02Z"/>
      <path class="cls-1" d="M326.14,56.58c0-.56.04-1.13.08-1.69-.04.56-.07,1.12-.08,1.69Z"/>
      <path class="cls-1" d="M326.99,50.26c.16-.62.36-1.24.57-1.85-.21.61-.4,1.22-.57,1.85Z"/>
      <path class="cls-1" d="M330.6,42.32c.37-.54.77-1.07,1.18-1.59-.41.52-.81,1.04-1.18,1.59Z"/>
      <path class="cls-1" d="M326.48,52.65c-.1.63-.18,1.26-.24,1.89.06-.68.15-1.36.27-2.03,0,.05-.02.09-.03.14Z"/>
      <path class="cls-1" d="M345.07,31.95c.15-.04.31-.07.46-.11-.15.04-.31.07-.46.11Z"/>
      <path class="cls-1" d="M347.23,31.45c.17-.03.34-.04.5-.07-.17.03-.34.04-.5.07Z"/>
      <path class="cls-1" d="M349.41,31.15c.18-.02.36-.02.55-.03-.18.01-.36.01-.55.03Z"/>
      <path class="cls-1" d="M342.95,32.64c.12-.04.24-.07.36-.12-.12.04-.24.07-.36.12Z"/>
      <path class="cls-1" d="M332,40.46c.4-.49.83-.97,1.27-1.43-.44.46-.87.94-1.27,1.43Z"/>
      <path class="cls-1" d="M340.87,33.52s.09-.04.14-.06c-.04.02-.09.04-.14.06Z"/>
      <path class="cls-1" d="M333.56,38.73c.45-.46.92-.91,1.42-1.34-.49.43-.96.88-1.42,1.34Z"/>
      <path class="cls-1" d="M335.25,37.17c.52-.44,1.05-.86,1.6-1.26-.56.4-1.09.83-1.6,1.26Z"/>
      <path class="cls-1" d="M377.75,57.11c0,.48-.03.97-.07,1.45.03-.48.06-.96.07-1.45Z"/>
      <path class="cls-1" d="M345.84,81.91c-.4-.1-.78-.22-1.18-.34.39.11.78.24,1.18.34Z"/>
      <path class="cls-1" d="M368.64,76.51c-.51.43-1.03.84-1.57,1.24.55-.39,1.07-.81,1.57-1.24Z"/>
      <path class="cls-1" d="M360.95,81.03c-.18.07-.36.11-.54.18.18-.06.36-.11.54-.18Z"/>
      <path class="cls-1" d="M326.83,62.74c-.09-.39-.18-.79-.25-1.19.07.4.16.79.25,1.19Z"/>
      <path class="cls-1" d="M326.21,58.63c-.03-.43-.04-.86-.05-1.29,0,.43.02.86.05,1.29Z"/>
      <path class="cls-1" d="M370.33,74.95c-.45.46-.92.9-1.4,1.32.49-.43.95-.87,1.4-1.32Z"/>
      <path class="cls-1" d="M343.74,81.3c-.37-.12-.73-.28-1.09-.42.36.14.72.29,1.09.42Z"/>
      <path class="cls-1" d="M347.97,82.33c-.42-.06-.83-.16-1.24-.25.41.09.82.18,1.24.25Z"/>
      <path class="cls-1" d="M339.71,79.56c-.31-.17-.61-.36-.92-.54.31.18.61.38.92.54Z"/>
      <path class="cls-1" d="M326.44,60.69c-.06-.4-.11-.8-.15-1.21.04.4.09.81.15,1.21Z"/>
      <path class="cls-1" d="M354.5,82.52c-.4.04-.81.05-1.21.07.4-.02.81-.03,1.21-.07Z"/>
      <path class="cls-1" d="M350.14,82.58c-.43-.03-.85-.09-1.27-.14.42.05.85.11,1.27.14Z"/>
      <path class="cls-1" d="M336,77.13c-.26-.2-.5-.43-.75-.64.25.21.49.44.75.64Z"/>
      <path class="cls-1" d="M358.83,81.72c-.3.08-.6.14-.89.21.3-.07.6-.12.89-.21Z"/>
      <path class="cls-1" d="M377.69,55.06c.03.4.04.79.05,1.19,0-.4-.02-.79-.05-1.19Z"/>
      <path class="cls-1" d="M328.22,66.94c-.19-.45-.38-.9-.54-1.35.16.46.35.9.54,1.35Z"/>
      <path class="cls-1" d="M327.41,64.8c-.13-.4-.26-.8-.37-1.21.11.41.24.81.37,1.21Z"/>
      <path class="cls-1" d="M337.81,78.43c-.28-.19-.55-.4-.83-.59.28.2.55.41.83.59Z"/>
      <path class="cls-1" d="M356.68,82.21c-.37.07-.74.11-1.11.16.37-.05.74-.09,1.11-.16Z"/>
      <path class="cls-1" d="M371.89,73.22c-.4.49-.82.96-1.26,1.42.44-.46.86-.93,1.26-1.42Z"/>
      <path class="cls-1" d="M376.9,63.43c-.16.6-.35,1.2-.55,1.79.2-.59.39-1.19.55-1.79Z"/>
      <path class="cls-1" d="M352.32,82.64c-.42,0-.84-.02-1.26-.03.42.01.84.04,1.26.03Z"/>
      <path class="cls-1" d="M375.36,67.69c-.26.56-.53,1.11-.83,1.65.3-.54.58-1.09.83-1.65Z"/>
      <path class="cls-1" d="M377.39,61.14s.02-.08.02-.12h0s0,.08-.02.12Z"/>
      <path class="cls-1" d="M377.32,61.5c-.11.58-.23,1.15-.37,1.72.14-.57.27-1.14.37-1.72Z"/>
      <path class="cls-1" d="M374.35,69.64c-.31.54-.63,1.07-.98,1.59.35-.52.67-1.05.98-1.59Z"/>
      <path class="cls-1" d="M376.22,65.6c-.21.57-.43,1.14-.68,1.69.25-.56.47-1.12.68-1.69Z"/>
      <path class="cls-1" d="M373.29,71.36c-.36.53-.76,1.05-1.16,1.56.41-.51.8-1.03,1.16-1.56Z"/>
      <path class="cls-1" d="M326.21,58.63c.02.28.05.56.08.84.04.4.09.81.15,1.21.04.29.09.58.15.87.07.4.16.79.25,1.19.07.28.13.57.21.85.11.41.24.81.37,1.21.09.26.17.53.26.79.16.46.35.91.54,1.35.07.17.14.35.22.52l3.4-2.44c-1.51-3.7-1.98-7.73-1.33-11.71.94-5.73,4.05-10.75,8.77-14.13,8.18-5.88,19.32-5.31,26.86,1.22l3.4-2.44c-.27-.26-.56-.49-.85-.73-.27-.23-.52-.47-.79-.68-.33-.26-.67-.49-1.01-.73-.26-.19-.52-.39-.79-.57-.36-.24-.74-.45-1.12-.67-.26-.15-.51-.32-.78-.46-.4-.22-.81-.4-1.22-.6-.25-.12-.5-.25-.75-.36-.44-.19-.88-.35-1.32-.51-.24-.09-.47-.19-.72-.27-.46-.16-.94-.28-1.41-.41-.23-.06-.45-.14-.68-.2-.49-.12-.99-.21-1.49-.3-.22-.04-.43-.09-.65-.13-.51-.08-1.03-.13-1.55-.18-.21-.02-.41-.05-.62-.07-.53-.04-1.06-.04-1.59-.05-.2,0-.4-.02-.59-.02-.55,0-1.09.05-1.64.09-.18.01-.36.01-.55.03-.56.05-1.12.14-1.68.24-.17.03-.34.04-.5.07-.57.1-1.13.24-1.69.39-.15.04-.31.07-.46.11-.59.16-1.18.36-1.77.57-.12.04-.24.07-.36.12-.66.24-1.3.52-1.94.82-.04.02-.09.04-.14.06-1.37.65-2.7,1.44-3.98,2.35-.02.01-.03.02-.04.03-.56.4-1.09.83-1.6,1.26-.09.08-.18.15-.27.23-.49.43-.96.88-1.42,1.34-.1.1-.19.2-.29.3-.44.46-.87.94-1.27,1.43-.07.09-.15.18-.22.28-.41.52-.81,1.04-1.18,1.59-.02.03-.04.06-.06.09-.36.53-.69,1.08-1.01,1.63-.05.09-.11.18-.16.27-.31.55-.59,1.11-.85,1.68-.05.12-.11.24-.16.35-.25.57-.49,1.15-.7,1.73-.04.11-.07.22-.11.33-.21.61-.4,1.22-.57,1.85-.01.04-.02.09-.03.13-.16.61-.29,1.22-.4,1.83-.02.1-.04.19-.05.29-.11.67-.2,1.35-.27,2.03-.01.12-.01.24-.02.36-.04.56-.07,1.12-.08,1.69,0,.25.01.5.02.76,0,.43.02.86.05,1.29Z"/>
      <path class="cls-1" d="M373.39,60.36c-.94,5.73-4.05,10.74-8.77,14.13-8.18,5.88-19.32,5.31-26.86-1.22l-3.4,2.44c.29.27.59.52.89.77.25.21.49.44.75.64.32.25.65.48.98.71.28.2.55.41.83.59.32.21.65.39.98.59.31.18.61.38.92.54.32.17.65.32.97.47.34.16.67.34,1.01.49.31.14.63.24.95.37.36.14.72.29,1.09.42.3.1.61.18.92.27.39.11.78.24,1.18.34.3.07.6.12.9.18.41.09.82.18,1.24.25.29.05.59.07.89.1.42.05.85.11,1.27.14.3.02.61.02.92.03.42.01.84.04,1.26.03.32,0,.65-.04.97-.05.4-.02.81-.03,1.21-.07.35-.03.71-.1,1.06-.15.37-.05.74-.09,1.11-.16.42-.08.84-.19,1.26-.29.3-.07.6-.12.89-.21.53-.15,1.05-.33,1.58-.51.18-.06.36-.11.54-.18,2.1-.78,4.14-1.86,6.05-3.23.02-.02.04-.03.06-.05.55-.39,1.07-.81,1.57-1.24.1-.08.19-.16.29-.24.49-.43.95-.87,1.4-1.32.1-.1.2-.21.3-.31.44-.46.86-.93,1.26-1.42.08-.1.16-.2.23-.3.41-.51.8-1.03,1.16-1.56.03-.04.05-.09.08-.13.35-.52.67-1.05.98-1.59.06-.1.12-.2.17-.3.3-.54.58-1.09.83-1.65.06-.13.12-.26.18-.39.25-.56.47-1.12.68-1.69.05-.13.09-.25.13-.38.2-.59.39-1.19.55-1.79.02-.07.03-.14.05-.21.14-.57.27-1.14.37-1.72.02-.12.05-.24.07-.36,0-.04,0-.08.02-.12l-4.02-.66Z"/>
      <path class="cls-1" d="M372.07,48.64c1.51,3.7,1.98,7.73,1.33,11.71l4.02.66c.09-.57.17-1.14.22-1.71.02-.25.04-.5.05-.75.03-.48.06-.96.07-1.45,0-.29-.01-.57-.02-.86,0-.4-.02-.79-.05-1.19-.02-.3-.05-.61-.09-.91-.04-.38-.08-.76-.14-1.14-.05-.3-.1-.61-.15-.91-.07-.38-.15-.76-.24-1.15-.07-.29-.14-.59-.22-.88-.11-.4-.23-.79-.36-1.19-.09-.27-.17-.54-.26-.8-.17-.46-.36-.92-.55-1.38-.07-.16-.13-.33-.21-.5l-3.4,2.44Z"/>
      <path class="cls-1" d="M330.98,71.89c.98,1.37,2.07,2.61,3.25,3.72.04.04.08.07.12.11l3.4-2.44c-.24-.21-.5-.41-.73-.63-1-.94-1.92-2-2.74-3.13-.81-1.13-1.52-2.34-2.09-3.6-.13-.29-.25-.59-.37-.88l-3.4,2.44c.02.05.04.1.06.15.68,1.47,1.5,2.9,2.48,4.27Z"/>
      <path class="cls-1" d="M369.6,44.16c.81,1.13,1.52,2.34,2.09,3.6.13.29.25.59.37.88l3.4-2.44c-.02-.05-.04-.1-.06-.15-.68-1.47-1.5-2.91-2.48-4.27s-2.07-2.61-3.25-3.72c-.04-.04-.08-.07-.12-.11l-3.4,2.44c.24.21.49.41.73.63,1,.95,1.92,2,2.74,3.13Z"/>
      <path class="cls-1" d="M471.66,127.63c-.6,0-1.2.23-1.65.69l-34.44,34.44-4.14-4.14,9.36,9.36,7.13,7.13c.71.71,1.28,1.5,1.72,2.34-.44-.84-1.02-1.63-1.72-2.34l-9.04-9.04,34.44-34.44c.91-.91.91-2.39,0-3.31-.46-.46-1.06-.69-1.65-.69Z"/>
      <path class="cls-1" d="M336.04,244.2c-1.66-1.66-2.59-3.78-2.79-5.95.2,2.17,1.13,4.29,2.79,5.95l1.18,1.18h0s-1.18-1.18-1.18-1.18Z"/>
      <path class="cls-1" d="M371.59,194.99l-35.54,35.54c-1.1,1.1-1.86,2.39-2.32,3.77.46-1.38,1.23-2.67,2.32-3.77l35.54-35.54Z"/>
      <path class="cls-1" d="M404.01,232.66l43.9-43.9c.71-.71,1.28-1.5,1.72-2.34-.44.84-1.02,1.63-1.72,2.34l-43.9,43.9Z"/>
      <path class="cls-1" d="M357.42,265.58l-1.18-1.18h0s1.18,1.18,1.18,1.18c1.89,1.89,4.36,2.83,6.83,2.83.93,0,1.85-.13,2.75-.4-3.29.97-6.99.16-9.58-2.43Z"/>
      <path class="cls-1" d="M440.78,167.96l7.13,7.13c3.78,3.78,3.77,9.89,0,13.66l-38.42,38.42-3.3-3.3-38.41,38.41c-.94.94-2.19,1.46-3.52,1.46s-2.58-.52-3.52-1.46l-21.38-21.38c-.94-.94-1.46-2.19-1.46-3.52s.52-2.58,1.46-3.52l4.1-4.1,14.21,14.21,3.31-3.31-14.21-14.21,5.26-5.26,5.45,5.45,3.31-3.31-5.45-5.45,4.46-4.46,14.21,14.21,3.31-3.31-14.21-14.21,5.24-5.24,5.45,5.45,3.31-3.31-5.45-5.45,4.48-4.48,14.21,14.21,1.65-1.65-17.52-17.52-2.87,2.87-35.54,35.54c-1.1,1.1-1.86,2.39-2.32,3.77-.42,1.27-.58,2.62-.46,3.94.2,2.17,1.13,4.29,2.79,5.95l1.18,1.18,19.03,19.03,1.18,1.18c2.59,2.59,6.3,3.4,9.58,2.43,1.49-.44,2.9-1.25,4.08-2.43l32.93-32.93,43.9-43.9c.71-.71,1.28-1.5,1.72-2.34,1.47-2.8,1.47-6.18,0-8.99-.44-.84-1.02-1.63-1.72-2.34l-7.13-7.13Z"/>
      <rect class="cls-1" x="346.73" y="241.43" width="0" height="26.92" transform="translate(15.36 529.45) rotate(-75.96)"/>
      <rect class="cls-1" x="396.95" y="167.29" width="4.68" height="0" transform="translate(-1.35 331.33) rotate(-45)"/>
      <path class="cls-1" d="M419.7,150.88h0c2.47,0,4.95.94,6.83,2.83l14.25,14.25-9.36-9.36-4.9-4.9c-1.89-1.89-4.36-2.83-6.83-2.83Z"/>
      <path class="cls-1" d="M419.7,150.88c-2.47,0-4.95.94-6.83,2.83l-11.93,11.93h0l-3.31,3.31h0l-23.18,23.18,17.52,17.52,1.65-1.65-14.21-14.21,5.22-5.22,5.45,5.45,3.31-3.31-5.45-5.45,5.22-5.22,14.21,14.21,3.31-3.31-14.21-14.21,4.48-4.48,5.45,5.45,3.31-3.31-5.45-5.45,4.52-4.52,14.21,14.21,3.31-3.31-14.21-14.21,4.1-4.1c.94-.94,2.19-1.46,3.53-1.46s2.58.52,3.52,1.46l21.38,21.38c1.94,1.94,1.94,5.11,0,7.05l-38.42,38.42,3.3,3.3,38.42-38.42c3.77-3.77,3.78-9.89,0-13.66l-7.13-7.13-14.25-14.25c-1.89-1.89-4.36-2.83-6.83-2.83Z"/>
      <path class="cls-3" d="M157.49,581.4c.54-.41,1.08-.8,1.63-1.17-.55.38-1.1.77-1.63,1.17-4.2,3.17-7.67,6.96-10.39,11.13h0c2.71-4.18,6.18-7.96,10.39-11.13Z"/>
      <path class="cls-3" d="M225.58,586.64l2.85,5.89h64.95c-.66-8.45-3.99-16.43-9.67-22.92-6.97-7.95-16.62-12.74-27.17-13.43-4.74-.32-9.44.21-13.95,1.56-12.62,3.77-22.51,13.5-26.45,26.02l-1.97,6.25-5.09-4.15c-10.17-8.32-23.77-11.03-36.39-7.26-4.51,1.35-8.72,3.47-12.52,6.35-2.94,2.22-5.48,4.79-7.61,7.58h73.24l-.21-5.89Z"/>
      <path class="cls-1" d="M297.82,592.54h0c-1.52-21.59-18.78-39.3-40.99-40.79-.44-.03-.89-.04-1.33-.06.44.02.88.03,1.32.06,22.22,1.48,39.47,19.19,40.99,40.79Z"/>
      <path class="cls-1" d="M147.1,592.54h5.45c2.13-2.8,4.67-5.36,7.61-7.58,3.8-2.87,8.01-5,12.52-6.35,12.62-3.77,26.22-1.06,36.39,7.26l5.09,4.15,1.97-6.25c3.95-12.52,13.83-22.25,26.45-26.02,4.51-1.35,9.21-1.88,13.95-1.56,10.56.7,20.2,5.48,27.17,13.43,5.68,6.49,9.01,14.47,9.67,22.92h4.44c-1.52-21.59-18.78-39.3-40.99-40.79-.44-.03-.88-.04-1.32-.06-.21,0-.41-.02-.62-.03-.34,0-.68,0-1.03,0-.31,0-.63,0-.94,0-.29,0-.57.02-.86.04-.37.02-.74.03-1.11.05-.24.02-.47.04-.71.06-.41.03-.83.07-1.24.11-.2.02-.39.05-.59.08-.45.06-.9.11-1.34.18-.16.03-.33.06-.49.08-.48.08-.95.16-1.42.26-.14.03-.28.06-.42.09-.49.1-.98.21-1.46.33-.13.03-.26.07-.39.1-.49.13-.97.26-1.45.4-.1.03-.2.06-.3.09-.79.24-1.58.5-2.35.78-.03.01-.06.02-.09.03-.8.29-1.59.61-2.36.95-.1.04-.21.09-.31.14-.68.3-1.36.62-2.02.96-.1.05-.2.1-.3.15-.72.37-1.42.76-2.11,1.16-.14.08-.27.16-.4.24-.58.35-1.15.71-1.71,1.08-.14.09-.28.18-.42.28-.65.44-1.28.9-1.91,1.38-.12.09-.23.18-.35.27-.55.43-1.09.87-1.61,1.32-.11.09-.21.18-.32.27-.63.55-1.24,1.11-1.83,1.7-.01.01-.02.02-.03.03-.57.56-1.13,1.14-1.67,1.74-.08.09-.17.18-.25.27-.55.61-1.08,1.23-1.6,1.88-.05.06-.09.12-.14.18-.46.58-.9,1.16-1.33,1.76-.1.14-.2.28-.3.43-.46.66-.91,1.33-1.33,2.01-.03.06-.07.11-.1.17-.39.64-.76,1.29-1.12,1.95-.08.15-.17.31-.25.46-.77,1.46-1.46,2.96-2.07,4.51-.05.13-.1.26-.15.39-.3.79-.58,1.58-.84,2.4,0,0,0,0,0,0,0,0,0,0,0,0-.09-.08-.19-.15-.28-.22-.52-.41-1.04-.82-1.57-1.2-.22-.16-.44-.32-.67-.48-.53-.38-1.07-.74-1.62-1.09-.12-.08-.24-.16-.36-.23-.65-.41-1.31-.79-1.97-1.15-.21-.12-.43-.24-.65-.35-.58-.31-1.16-.6-1.75-.89-.13-.06-.25-.13-.38-.19-.7-.32-1.41-.63-2.12-.91-.2-.08-.41-.16-.61-.24-.62-.24-1.25-.47-1.88-.68-.13-.04-.25-.09-.38-.13-.74-.24-1.5-.46-2.25-.66-.18-.05-.36-.09-.53-.14-.67-.17-1.34-.32-2.02-.46-.12-.02-.24-.05-.35-.08-.79-.15-1.58-.28-2.37-.39-.14-.02-.29-.04-.43-.06-.72-.09-1.44-.17-2.16-.23-.1,0-.2-.02-.3-.03-.82-.06-1.64-.1-2.47-.11-.1,0-.19,0-.29,0-.77,0-1.54,0-2.31.04-.08,0-.17,0-.25,0-.85.04-1.69.1-2.53.19-.05,0-.1.01-.16.02-.8.09-1.61.2-2.41.33-.08.01-.15.02-.23.04-.85.15-1.7.31-2.54.51-.02,0-.03,0-.05.01-.81.19-1.62.41-2.42.64-.1.03-.2.06-.29.09-.48.14-.95.3-1.43.46-.13.04-.25.08-.38.13-.47.16-.94.34-1.4.52-.13.05-.26.1-.39.15-.46.18-.91.38-1.36.58-.14.06-.27.12-.41.18-.44.2-.88.41-1.32.63-.14.07-.29.14-.43.21-.43.22-.86.45-1.28.68-.15.08-.29.15-.44.24-.44.25-.87.5-1.3.77-.13.08-.26.15-.38.23-.51.32-1.02.66-1.53,1-.04.02-.07.05-.11.07-.55.38-1.09.77-1.63,1.17-4.2,3.17-7.67,6.96-10.39,11.13Z"/>
      <polygon class="cls-1" points="225.58 586.64 225.79 592.54 228.42 592.54 225.58 586.64"/>
      <polygon class="cls-4" points="37.44 585.39 32.97 589.87 35.64 592.54 44.59 592.54 37.44 585.39"/>
      <path class="cls-3" d="M105.95,573.75c1.94-1.94,1.94-5.11,0-7.05l-21.38-21.38c-.94-.94-2.19-1.46-3.53-1.46s-2.58.52-3.52,1.46l-4.1,4.1,14.21,14.21-3.31,3.31-14.21-14.21-4.52,4.52,5.45,5.45-3.31,3.31-5.45-5.45-4.48,4.48,14.21,14.21-3.31,3.31-14.21-14.21-5.22,5.22,5.45,5.45-3.31,3.31-5.45-5.45-5.22,5.22,10.45,10.45h35.96l18.78-18.78Z"/>
      <path class="cls-1" d="M109.25,577.06l-15.48,15.48h0l15.48-15.48s.07-.09.11-.13c0,0,0,0,0,0-.04.04-.07.08-.11.12Z"/>
      <path class="cls-1" d="M110.08,576.1s0,0,0,0c.09-.11.17-.23.25-.34,0,0,0,0,0,0-.08.12-.17.23-.25.34Z"/>
      <path class="cls-1" d="M110.9,574.84s.05-.08.08-.12c-.02.04-.05.08-.08.12t0,0Z"/>
      <path class="cls-1" d="M109.25,577.06s.07-.08.11-.12c-.04.04-.07.08-.11.12l-15.48,15.48h0l15.48-15.48Z"/>
      <path class="cls-1" d="M110.9,574.84s.05-.08.08-.12c.15-.28.28-.57.4-.86.94-2.33.94-4.95,0-7.27-.12-.29-.25-.58-.4-.86,0,0,0-.01-.01-.02,1.51,2.85,1.48,6.29-.07,9.13Z"/>
      <polygon class="cls-1" points="35.64 592.54 32.97 589.87 37.44 585.39 44.59 592.54 47.9 592.54 35.79 580.43 23.68 592.54 35.64 592.54"/>
      <path class="cls-1" d="M110.11,564.39c.07.09.13.18.2.27-.06-.09-.13-.18-.2-.27Z"/>
      <path class="cls-1" d="M110.08,576.1c.09-.11.17-.23.25-.34-.08.12-.17.23-.25.34Z"/>
      <polygon class="cls-1" points="100.22 554.36 96.91 551.05 87.87 542.01 106.49 560.63 100.22 554.36"/>
      <polygon class="cls-1" points="109.25 563.4 109.25 563.39 109.26 563.4 109.25 563.4"/>
      <polygon class="cls-1" points="35.79 580.43 23.68 592.54 23.68 592.54 35.79 580.43"/>
      <path class="cls-1" d="M51.2,592.54l-10.45-10.45,5.22-5.22,5.45,5.45,3.31-3.31-5.45-5.45,5.22-5.22,14.21,14.21,3.31-3.31-14.21-14.21,4.48-4.48,5.45,5.45,3.31-3.31-5.45-5.45,4.52-4.52,14.21,14.21,3.31-3.31-14.21-14.21,4.1-4.1c.94-.94,2.19-1.46,3.52-1.46s2.58.52,3.53,1.46l21.38,21.38c1.94,1.94,1.94,5.11,0,7.05l-18.78,18.78h6.61l15.48-15.48s.07-.08.11-.12c.26-.27.5-.55.72-.83.09-.11.17-.23.25-.34.21-.3.4-.6.57-.92,1.54-2.83,1.57-6.27.07-9.13-.19-.37-.42-.72-.66-1.06-.06-.09-.13-.18-.2-.27-.26-.34-.54-.68-.85-.99,0,0,0,0,0,0l-2.76-2.76-18.62-18.62h0c-.3-.3-.62-.57-.94-.82-1.73-1.34-3.81-2.01-5.89-2.01-2.47,0-4.95.94-6.83,2.83l-11.93,11.93h0s-3.31,3.31-3.31,3.31l-20.53,20.53-2.65,2.65,12.11,12.11h3.31Z"/>
      <polygon class="cls-1" points="109.25 563.39 106.49 560.63 109.25 563.39 109.25 563.39"/>
      <path class="cls-1" d="M109.26,563.4c.31.31.59.65.85.99-.26-.34-.54-.68-.85-.99Z"/>
      <path class="cls-1" d="M110.08,576.1c-.22.29-.46.56-.71.83.26-.27.49-.54.71-.83Z"/>
      <path class="cls-1" d="M110.9,574.84c-.17.31-.36.62-.57.91.21-.3.4-.6.57-.91Z"/>
      <path class="cls-1" d="M110.31,564.66c.24.34.47.69.66,1.06-.19-.37-.42-.72-.66-1.06Z"/>
      <path class="cls-1" d="M110.33,575.76s0,0,0,0c.21-.3.4-.6.57-.91t0,0c-.17.31-.36.62-.57.92Z"/>
      <path class="cls-1" d="M109.36,576.94s0,0,0,0c.26-.27.49-.54.71-.83,0,0,0,0,0,0-.22.29-.46.57-.72.83Z"/>
      <polygon class="cls-2" points="10.52 213.09 3.33 205.9 3.33 220.28 10.52 213.09"/>
      <polygon class="cls-1" points="10.52 213.09 3.33 220.28 3.33 226.89 13.83 216.4 10.52 213.09"/>
      <path class="cls-2" d="M4.79,200.74l21.38,21.38c.94.94,2.19,1.46,3.53,1.46s2.58-.52,3.53-1.46l4.1-4.1-14.21-14.21,3.31-3.31,14.21,14.21,4.52-4.52-5.45-5.45,3.31-3.31,5.45,5.45,4.48-4.48-14.21-14.21,3.31-3.31,14.21,14.21,5.22-5.22-5.45-5.45,3.31-3.31,5.45,5.45,5.22-5.22-14.21-14.21,1.65-1.65,1.65-1.65,14.21,14.21,4.48-4.48-5.45-5.45,3.31-3.31,5.45,5.45,5.24-5.24-14.21-14.21,3.31-3.31,14.21,14.21,4.46-4.46-5.45-5.45,3.31-3.31,5.45,5.45,5.26-5.26-14.21-14.21,3.31-3.31,14.21,14.21,4.1-4.1c.94-.94,1.46-2.19,1.46-3.52s-.52-2.58-1.46-3.52l-21.38-21.38c-.94-.94-2.19-1.46-3.52-1.46s-2.58.52-3.53,1.46l-38.41,38.41L4.79,193.69c-1.94,1.94-1.94,5.11,0,7.05Z"/>
      <polygon class="cls-1" points="1.48 204.05 1.48 204.05 1.48 204.05 1.48 204.05"/>
      <path class="cls-1" d="M.63,203.06c-.07-.09-.13-.18-.2-.27.06.09.13.18.2.27Z"/>
      <path class="cls-1" d="M.4,191.69c.08-.12.16-.23.25-.34-.09.11-.17.23-.25.34Z"/>
      <path class="cls-1" d="M113.35,134.95l-1.18-1.18-9.52-9.52-10.69-10.69c-2.59-2.59-6.3-3.4-9.58-2.43-.04.01-.08.03-.12.04-.55.17-1.1.39-1.62.66-.84.44-1.63,1.02-2.34,1.72l-32.93,32.93L1.48,190.39s-.06.08-.1.12c.04-.04.07-.08.1-.11l38.42-38.42,3.3,3.3,38.41-38.41c.94-.94,2.19-1.46,3.53-1.46s2.58.52,3.52,1.46l21.38,21.38c.94.94,1.46,2.19,1.46,3.52s-.52,2.58-1.46,3.52l-4.1,4.1-14.21-14.21-3.31,3.31,14.21,14.21-5.26,5.26-5.45-5.45-3.31,3.31,5.45,5.45-4.46,4.46-14.21-14.21-3.31,3.31,14.21,14.21-5.24,5.24-5.45-5.45-3.31,3.31,5.45,5.45-4.48,4.48-14.21-14.21-1.65,1.65,17.52,17.52,38.41-38.41c3.77-3.77,3.77-9.89,0-13.66Z"/>
      <path class="cls-1" d="M55.77,171.15l14.21,14.21-5.22,5.22-5.45-5.45-3.31,3.31,5.45,5.45-5.22,5.22-14.21-14.21-3.31,3.31,14.21,14.21-4.48,4.48-5.45-5.45-3.31,3.31,5.45,5.45-4.52,4.52-14.21-14.21-3.31,3.31,14.21,14.21-4.1,4.1c-.94.94-2.19,1.46-3.53,1.46s-2.58-.52-3.53-1.46l-21.38-21.38c-1.94-1.94-1.94-5.11,0-7.05l38.42-38.42-3.3-3.3L1.48,190.39s-.07.08-.1.11c-.26.27-.5.55-.72.84-.09.11-.17.23-.25.34-.15.21-.28.43-.4.65v9.77c.14.23.27.46.43.69.06.09.13.18.2.27.26.34.54.68.85.99,0,0,0,0,0,0l21.38,21.38s.03.02.04.04c1.17,1.16,2.56,1.96,4.04,2.4.9.27,1.82.4,2.75.4,1.85,0,3.71-.53,5.32-1.59.54-.35,1.04-.77,1.52-1.24l11.93-11.93h0s3.31-3.31,3.31-3.31l17.6-17.6,5.58-5.58-17.52-17.52-1.65,1.65Z"/>
      <path class="cls-1" d="M1.48,204.05c-.31-.31-.59-.65-.85-.99.26.34.54.68.85.99Z"/>
      <path class="cls-1" d="M.4,191.69c-.14.21-.28.42-.4.63v.02c.13-.22.26-.44.4-.65Z"/>
      <path class="cls-1" d="M.66,191.35c.22-.29.46-.57.72-.84-.26.27-.5.55-.72.84Z"/>
      <path class="cls-1" d="M0,202.13c.13.23.28.45.43.66-.16-.22-.29-.45-.43-.69v.02Z"/>
    </g>
  </g>
</svg>