<?xml version="1.0" encoding="UTF-8" standalone="no"?>
<!-- Created with Inkscape (http://www.inkscape.org/) -->

<svg
   xmlns:dc="http://purl.org/dc/elements/1.1/"
   xmlns:cc="http://creativecommons.org/ns#"
   xmlns:rdf="http://www.w3.org/1999/02/22-rdf-syntax-ns#"
   xmlns:svg="http://www.w3.org/2000/svg"
   xmlns="http://www.w3.org/2000/svg"
   xmlns:sodipodi="http://sodipodi.sourceforge.net/DTD/sodipodi-0.dtd"
   xmlns:inkscape="http://www.inkscape.org/namespaces/inkscape"
   width="127.43468mm"
   height="63.994797mm"
   viewBox="0 0 127.43468 63.994797"
   version="1.1"
   id="svg8"
   inkscape:version="0.92.3 (2405546, 2018-03-11)"
   sodipodi:docname="ShebaNew.svg">
  <defs
     id="defs2" />
  <sodipodi:namedview
     id="base"
     pagecolor="#ffffff"
     bordercolor="#666666"
     borderopacity="1.0"
     inkscape:pageopacity="0.0"
     inkscape:pageshadow="2"
     inkscape:zoom="0.49948992"
     inkscape:cx="-252.43666"
     inkscape:cy="-251.05035"
     inkscape:document-units="mm"
     inkscape:current-layer="layer1"
     showgrid="false"
     showguides="true"
     inkscape:guide-bbox="true"
     inkscape:snap-bbox="true"
     inkscape:bbox-paths="true"
     inkscape:bbox-nodes="true"
     inkscape:snap-bbox-edge-midpoints="true"
     inkscape:snap-bbox-midpoints="true"
     inkscape:object-paths="true"
     inkscape:snap-intersection-paths="true"
     inkscape:snap-smooth-nodes="true"
     inkscape:snap-object-midpoints="true"
     inkscape:snap-center="true"
     inkscape:window-width="1920"
     inkscape:window-height="1001"
     inkscape:window-x="-9"
     inkscape:window-y="-9"
     inkscape:window-maximized="1"
     fit-margin-top="0"
     fit-margin-left="0"
     fit-margin-right="0"
     fit-margin-bottom="0">
    <sodipodi:guide
       position="126.67868,-70.443006"
       orientation="0,1"
       id="guide4773"
       inkscape:locked="false" />
  </sodipodi:namedview>
  <metadata
     id="metadata5">
    <rdf:RDF>
      <cc:Work
         rdf:about="">
        <dc:format>image/svg+xml</dc:format>
        <dc:type
           rdf:resource="http://purl.org/dc/dcmitype/StillImage" />
        <dc:title></dc:title>
      </cc:Work>
    </rdf:RDF>
  </metadata>
  <g
     inkscape:label="Layer 1"
     inkscape:groupmode="layer"
     id="layer1"
     transform="translate(-159.82539,-343.28719)">
    <path
       style="color:#000000;font-style:normal;font-variant:normal;font-weight:normal;font-stretch:normal;font-size:medium;line-height:normal;font-family:sans-serif;font-variant-ligatures:normal;font-variant-position:normal;font-variant-caps:normal;font-variant-numeric:normal;font-variant-alternates:normal;font-feature-settings:normal;text-indent:0;text-align:start;text-decoration:none;text-decoration-line:none;text-decoration-style:solid;text-decoration-color:#000000;letter-spacing:normal;word-spacing:normal;text-transform:none;writing-mode:lr-tb;direction:ltr;text-orientation:mixed;dominant-baseline:auto;baseline-shift:baseline;text-anchor:start;white-space:normal;shape-padding:0;clip-rule:nonzero;display:inline;overflow:visible;visibility:visible;opacity:1;isolation:auto;mix-blend-mode:normal;color-interpolation:sRGB;color-interpolation-filters:linearRGB;solid-color:#000000;solid-opacity:1;vector-effect:none;fill:#2bb99b;fill-opacity:1;fill-rule:nonzero;stroke:none;stroke-width:31.80000114;stroke-linecap:butt;stroke-linejoin:miter;stroke-miterlimit:4;stroke-dasharray:none;stroke-dashoffset:0;stroke-opacity:1;color-rendering:auto;image-rendering:auto;shape-rendering:auto;text-rendering:auto;enable-background:accumulate"
       d="m 266.38771,343.29213 c -5.71384,-0.12295 -11.36835,2.05045 -15.56144,6.24124 -6.09902,6.09571 -7.92762,15.28373 -4.62662,23.24871 3.301,7.96497 11.0931,13.16831 19.71762,13.16831 v -5.04562 c -6.59927,0 -12.5314,-3.96236 -15.05629,-10.05467 -2.52489,-6.09229 -1.13346,-13.08488 3.53234,-17.74813 4.6658,-4.66326 11.66446,-6.05475 17.76115,-3.53079 6.0967,2.52396 10.05994,8.45266 10.05994,15.04667 h 5.04562 c 0,-8.62146 -5.20722,-16.40987 -13.17544,-19.70862 -2.49008,-1.03085 -5.09969,-1.56121 -7.69688,-1.6171 z"
       id="path4769"
       inkscape:connector-curvature="0" />
    <path
       style="color:#000000;font-style:normal;font-variant:normal;font-weight:normal;font-stretch:normal;font-size:medium;line-height:normal;font-family:sans-serif;font-variant-ligatures:normal;font-variant-position:normal;font-variant-caps:normal;font-variant-numeric:normal;font-variant-alternates:normal;font-feature-settings:normal;text-indent:0;text-align:start;text-decoration:none;text-decoration-line:none;text-decoration-style:solid;text-decoration-color:#000000;letter-spacing:normal;word-spacing:normal;text-transform:none;writing-mode:lr-tb;direction:ltr;text-orientation:mixed;dominant-baseline:auto;baseline-shift:baseline;text-anchor:start;white-space:normal;shape-padding:0;clip-rule:nonzero;display:inline;overflow:visible;visibility:visible;opacity:1;isolation:auto;mix-blend-mode:normal;color-interpolation:sRGB;color-interpolation-filters:linearRGB;solid-color:#000000;solid-opacity:1;vector-effect:none;fill:#ea3e85;fill-opacity:1;fill-rule:nonzero;stroke:none;stroke-width:31.80000114;stroke-linecap:butt;stroke-linejoin:miter;stroke-miterlimit:4;stroke-dasharray:none;stroke-dashoffset:0;stroke-opacity:1;color-rendering:auto;image-rendering:auto;shape-rendering:auto;text-rendering:auto;enable-background:accumulate"
       d="m 265.44899,407.27704 c 5.71383,0.12295 11.36834,-2.05013 15.56142,-6.24093 6.09903,-6.09572 7.92762,-15.28405 4.62663,-23.24902 -3.301,-7.96496 -11.09341,-13.16831 -19.71792,-13.16831 v 5.04592 c 6.59926,0 12.5317,3.96207 15.05659,10.05436 2.52488,6.0923 1.13346,13.08489 -3.53234,17.74814 -4.6658,4.66326 -11.66445,6.05475 -17.76115,3.53079 -6.09671,-2.52396 -10.05994,-8.45265 -10.05994,-15.04667 h -5.04562 c 0,8.62146 5.20721,16.40987 13.17545,19.70862 2.49006,1.03085 5.09969,1.56121 7.69688,1.6171 z"
       id="path4771"
       inkscape:connector-curvature="0" />
    <path
       inkscape:connector-curvature="0"
       id="path4783"
       style="font-style:normal;font-variant:normal;font-weight:900;font-stretch:normal;font-size:medium;line-height:100%;font-family:Simpler;-inkscape-font-specification:'Simpler Heavy';letter-spacing:0px;word-spacing:0px;fill:#2b296d;fill-opacity:1;stroke:none;stroke-width:0.2645832px;stroke-linecap:butt;stroke-linejoin:miter;stroke-opacity:1"
       d="m 232.9153,353.0457 h -4.02584 v 6.53037 c 0,2.21328 -0.80016,3.71629 -2.09034,4.53603 -0.74824,0.46484 -1.65178,0.68327 -2.65824,0.68327 -1.00646,0 -1.88357,-0.21993 -2.60631,-0.65578 -0.41542,-0.24492 -0.77421,-0.57382 -1.08388,-0.95669 2.96792,-0.54633 5.65166,-1.77592 5.65166,-6.50289 v -3.63431 h -3.92246 v 3.47036 c 0,2.02184 -0.31157,3.11499 -2.76163,3.87975 -0.0472,-0.27492 -0.0472,-0.54633 -0.0472,-0.81974 v -6.53037 h -4.02583 v 6.17549 c 0,3.79776 1.21275,6.1205 3.07083,7.54154 1.47098,1.12014 3.32906,1.66646 5.65166,1.66646 2.27114,0 4.20664,-0.51883 5.70311,-1.63947 1.96147,-1.47551 3.12276,-3.93472 3.12276,-7.56853 z" />
    <path
       inkscape:connector-curvature="0"
       id="path4785"
       style="font-style:normal;font-variant:normal;font-weight:900;font-stretch:normal;font-size:medium;line-height:100%;font-family:Simpler;-inkscape-font-specification:'Simpler Heavy';letter-spacing:0px;word-spacing:0px;fill:#2b296d;fill-opacity:1;stroke:none;stroke-width:0.2645832px;stroke-linecap:butt;stroke-linejoin:miter;stroke-opacity:1"
       d="m 212.87834,353.0457 h -5.80649 v 3.68879 h 1.54839 v 6.148 h 4.2581 z" />
    <path
       inkscape:connector-curvature="0"
       id="path4787"
       style="font-style:normal;font-variant:normal;font-weight:900;font-stretch:normal;font-size:medium;line-height:100%;font-family:Simpler;-inkscape-font-specification:'Simpler Heavy';letter-spacing:0px;word-spacing:0px;fill:#2b296d;fill-opacity:1;stroke:none;stroke-width:0.2645832px;stroke-linecap:butt;stroke-linejoin:miter;stroke-opacity:1"
       d="m 193.55699,353.0457 v 3.68879 h 4.92939 c 1.21275,0 1.90953,0.68328 1.90953,2.13131 v 5.49221 h -6.96779 v 3.68881 h 13.54849 v -3.68881 H 204.654 v -5.27378 c 0,-1.91238 -0.23131,-2.70512 -0.49047,-3.30593 -0.72228,-1.63946 -2.29663,-2.7326 -4.56778,-2.7326 z" />
    <path
       inkscape:connector-curvature="0"
       id="path4789"
       style="font-style:normal;font-variant:normal;font-weight:900;font-stretch:normal;font-size:medium;line-height:100%;font-family:Simpler;-inkscape-font-specification:'Simpler Heavy';letter-spacing:0px;word-spacing:0px;fill:#2b296d;fill-opacity:1;stroke:none;stroke-width:0.2645832px;stroke-linecap:butt;stroke-linejoin:miter;stroke-opacity:1"
       d="m 191.70297,353.0457 h -4.41294 l -0.31157,2.18579 c -0.23132,1.63947 -0.3635,2.76009 -1.5484,3.41588 l -3.92245,-5.60167 h -4.98085 l 4.38698,6.28445 c -2.40002,0.98368 -2.99342,2.97853 -3.45794,5.43774 l -0.61936,3.27893 h 4.4644 l 0.43903,-2.95105 c 0.17938,-1.2296 0.31156,-2.32274 1.08387,-3.03301 l 4.20617,5.98406 h 4.98084 l -4.77407,-6.80379 c 2.73519,-0.90171 3.45793,-2.89656 3.99987,-5.73814 z" />
    <path
       inkscape:connector-curvature="0"
       id="path4760"
       style="font-style:normal;font-variant:normal;font-weight:bold;font-stretch:normal;font-size:medium;line-height:100%;font-family:SimplerLigt;-inkscape-font-specification:'SimplerLigt Bold';letter-spacing:0px;word-spacing:0px;fill:#2b296d;fill-opacity:1;stroke:none;stroke-width:0.26458341px;stroke-linecap:butt;stroke-linejoin:miter;stroke-opacity:1"
       d="m 222.8827,374.82746 h 6.85821 q 1.88963,0 2.74713,1.33599 0.48685,0.84502 0.48685,2.23997 v 6.50385 h -0.97405 v -6.32701 q 0,-2.79025 -2.29914,-2.79025 h -3.50698 v 6.81836 q 0,1.31623 -0.72064,1.86652 -0.70139,0.55028 -1.67579,0.55028 -0.40915,0 -0.8183,-0.0576 v -0.92373 q 0.0784,0 0.21384,0.0359 0.15682,0.036 0.27443,0.0396 0.11762,0 0.21384,0 1.5393,0 1.5393,-1.80757 v -6.50386 h -2.338 z" />
    <path
       inkscape:connector-curvature="0"
       id="path4762"
       style="font-style:normal;font-variant:normal;font-weight:bold;font-stretch:normal;font-size:medium;line-height:100%;font-family:SimplerLigt;-inkscape-font-specification:'SimplerLigt Bold';letter-spacing:0px;word-spacing:0px;fill:#2b296d;fill-opacity:1;stroke:none;stroke-width:0.26458341px;stroke-linecap:butt;stroke-linejoin:miter;stroke-opacity:1"
       d="m 214.92686,371.07429 v 3.75317 h 6.37101 v 0.82524 l -3.83808,9.25457 h -1.05209 l 3.77962,-9.13667 h -6.25411 v -4.69631 z" />
    <path
       inkscape:connector-curvature="0"
       id="path4764"
       style="font-style:normal;font-variant:normal;font-weight:bold;font-stretch:normal;font-size:medium;line-height:100%;font-family:SimplerLigt;-inkscape-font-specification:'SimplerLigt Bold';letter-spacing:0px;word-spacing:0px;fill:#2b296d;fill-opacity:1;stroke:none;stroke-width:0.26458341px;stroke-linecap:butt;stroke-linejoin:miter;stroke-opacity:1"
       d="m 199.41233,374.82746 h 4.79287 q 1.88999,0 2.74713,1.33599 0.4872,0.84502 0.4872,2.23997 v 6.50385 h -0.99365 v -6.32701 q 0,-2.79025 -2.29914,-2.79025 h -4.73441 z m 1.01324,4.67616 v 5.40365 h -1.01324 v -5.40365 z" />
    <path
       inkscape:connector-curvature="0"
       id="path4766"
       style="font-style:normal;font-variant:normal;font-weight:bold;font-stretch:normal;font-size:medium;line-height:100%;font-family:SimplerLigt;-inkscape-font-specification:'SimplerLigt Bold';letter-spacing:0px;word-spacing:0px;fill:#2b296d;fill-opacity:1;stroke:none;stroke-width:0.26458341px;stroke-linecap:butt;stroke-linejoin:miter;stroke-opacity:1"
       d="m 196.72909,374.82746 v 4.02776 q 0,1.63108 -0.40915,2.81001 -0.38954,1.15915 -1.38318,2.08252 -1.46124,1.41472 -3.62388,1.41472 -2.16264,0 -3.62389,-1.41472 -0.99364,-0.92337 -1.40279,-2.08252 -0.38991,-1.17893 -0.38991,-2.81001 v -4.02776 h 0.97441 v 3.98858 q 0,1.31659 0.29225,2.27913 0.89599,-0.15815 1.48048,-0.35223 0.5845,-0.21566 1.11054,-0.64842 0.54566,-0.43203 0.79906,-1.15915 0.25305,-0.74653 0.25305,-1.82733 v -2.27915 h 0.99364 v 2.29892 q 0,1.27704 -0.34927,2.181 -0.33146,0.8842 -0.99365,1.39495 -0.64295,0.49134 -1.34434,0.74653 -0.6818,0.23723 -1.65584,0.39321 0.4284,0.78571 0.95444,1.29682 1.0913,1.10023 2.90323,1.10023 1.77275,0 2.90289,-1.10023 1.5393,-1.47365 1.5393,-4.32285 v -3.98858 z" />
    <path
       inkscape:connector-curvature="0"
       id="path4768"
       style="font-style:normal;font-variant:normal;font-weight:bold;font-stretch:normal;font-size:medium;line-height:100%;font-family:SimplerLigt;-inkscape-font-specification:'SimplerLigt Bold';letter-spacing:0px;word-spacing:0px;fill:#2b296d;fill-opacity:1;stroke:none;stroke-width:0.26458341px;stroke-linecap:butt;stroke-linejoin:miter;stroke-opacity:1"
       d="m 183.0538,374.82746 v 10.07981 h -1.01289 v -9.11726 h -1.24705 v -0.96255 z" />
    <path
       inkscape:connector-curvature="0"
       id="path4770"
       style="font-style:normal;font-variant:normal;font-weight:bold;font-stretch:normal;font-size:medium;line-height:100%;font-family:SimplerLigt;-inkscape-font-specification:'SimplerLigt Bold';letter-spacing:0px;word-spacing:0px;fill:#2b296d;fill-opacity:1;stroke:none;stroke-width:0.26458341px;stroke-linecap:butt;stroke-linejoin:miter;stroke-opacity:1"
       d="m 174.83538,374.59167 q 1.83119,0 2.96134,1.45389 1.13014,1.45389 1.13014,3.67444 0,5.46224 -4.46178,5.46224 -0.60409,0 -1.13015,-0.097 v -0.90397 q 0.48721,0.0791 1.09131,0.0791 1.73388,0.0395 2.63023,-1.0808 0.91559,-1.13975 0.91559,-3.39912 0,-1.8471 -0.8379,-3.06521 -0.83754,-1.21846 -2.31838,-1.21846 -1.88999,0 -2.82519,1.96499 -0.40914,0.84502 -0.74024,2.69177 -0.33146,1.96499 -0.6041,4.77465 h -0.93519 q 0.48719,-4.81383 0.9744,-6.58222 l -1.96804,-3.51701 h 1.20819 l 1.26629,2.27914 q 1.13014,-2.51493 3.64348,-2.51493 z" />
    <path
       inkscape:connector-curvature="0"
       id="path4772"
       style="font-style:normal;font-variant:normal;font-weight:bold;font-stretch:normal;font-size:medium;line-height:100%;font-family:SimplerLigt;-inkscape-font-specification:'SimplerLigt Bold';letter-spacing:0px;word-spacing:0px;fill:#2b296d;fill-opacity:1;stroke:none;stroke-width:0.26458341px;stroke-linecap:butt;stroke-linejoin:miter;stroke-opacity:1"
       d="m 159.82539,374.82746 h 3.64313 q 1.88999,0 2.74713,1.33599 0.4872,0.84502 0.4872,2.23997 v 6.50385 h -0.99364 v -6.32701 q 0,-2.79025 -2.29914,-2.79025 h -3.58468 z" />
  </g>
</svg>
